MidiFile(type=1, ticks_per_beat=960, tracks=[
  MidiTrack([
    MetaMessage('track_name', name='00019170', time=0),
    MetaMessage('time_signature', numerator=4, denominator=4, clocks_per_click=24, notated_32nd_notes_per_beat=8, time=0),
    MetaMessage('set_tempo', tempo=1200000, time=0),
    MetaMessage('set_tempo', tempo=607545, time=151),
    MetaMessage('set_tempo', tempo=615882, time=7680),
    MetaMessage('set_tempo', tempo=613619, time=3840),
    MetaMessage('set_tempo', tempo=610048, time=19200),
    MetaMessage('set_tempo', tempo=613247, time=15360),
    MetaMessage('set_tempo', tempo=612006, time=69120),
    MetaMessage('set_tempo', tempo=612474, time=30720),
    MetaMessage('set_tempo', tempo=612476, time=38400),
    MetaMessage('end_of_track', time=0)]),
  MidiTrack([
    MetaMessage('track_name', name='00005902_0128', time=0),
    Message('note_on', channel=0, note=62, velocity=100, time=0),
    Message('note_on', channel=0, note=62, velocity=0, time=7890),
    Message('note_on', channel=0, note=62, velocity=100, time=0),
    Message('note_on', channel=0, note=62, velocity=0, time=296),
    Message('note_on', channel=0, note=62, velocity=100, time=0),
    Message('note_on', channel=0, note=62, velocity=0, time=248),
    MetaMessage('lyrics', text=' ', time=0),
    Message('note_on', channel=0, note=62, velocity=100, time=112),
    Message('note_on', channel=0, note=62, velocity=0, time=120),
    Message('note_on', channel=0, note=62, velocity=100, time=0),
    Message('note_on', channel=0, note=62, velocity=0, time=440),
    Message('note_on', channel=0, note=64, velocity=100, time=0),
    Message('note_on', channel=0, note=64, velocity=0, time=352),
    Message('note_on', channel=0, note=62, velocity=100, time=0),
    Message('note_on', channel=0, note=62, velocity=0, time=424),
    MetaMessage('lyrics', text=' ', time=0),
    Message('note_on', channel=0, note=59, velocity=100, time=104),
    Message('note_on', channel=0, note=59, velocity=0, time=576),
    Message('note_on', channel=0, note=62, velocity=100, time=0),
    Message('note_on', channel=0, note=62, velocity=0, time=1232),
    Message('note_on', channel=0, note=62, velocity=100, time=0),
    Message('note_on', channel=0, note=62, velocity=0, time=224),
    Message('note_on', channel=0, note=62, velocity=100, time=0),
    Message('note_on', channel=0, note=62, velocity=0, time=256),
    Message('note_on', channel=0, note=62, velocity=100, time=0),
    Message('note_on', channel=0, note=62, velocity=0, time=224),
    MetaMessage('lyrics', text=' ', time=0),
    Message('note_on', channel=0, note=62, velocity=100, time=128),
    Message('note_on', channel=0, note=62, velocity=0, time=296),
    Message('note_on', channel=0, note=64, velocity=100, time=0),
    Message('note_on', channel=0, note=64, velocity=0, time=344),
    Message('note_on', channel=0, note=62, velocity=100, time=0),
    Message('note_on', channel=0, note=62, velocity=0, time=416),
    MetaMessage('lyrics', text=' ', time=0),
    Message('note_on', channel=0, note=59, velocity=100, time=144),
    Message('note_on', channel=0, note=59, velocity=0, time=800),
    Message('note_on', channel=0, note=67, velocity=100, time=0),
    Message('note_on', channel=0, note=67, velocity=0, time=1008),
    Message('note_on', channel=0, note=67, velocity=100, time=0),
    Message('note_on', channel=0, note=67, velocity=0, time=248),
    Message('note_on', channel=0, note=67, velocity=100, time=0),
    Message('note_on', channel=0, note=67, velocity=0, time=224),
    Message('note_on', channel=0, note=67, velocity=100, time=0),
    Message('note_on', channel=0, note=67, velocity=0, time=232),
    MetaMessage('lyrics', text=' ', time=0),
    Message('note_on', channel=0, note=67, velocity=100, time=128),
    Message('note_on', channel=0, note=67, velocity=0, time=360),
    Message('note_on', channel=0, note=69, velocity=100, time=0),
    Message('note_on', channel=0, note=69, velocity=0, time=312),
    Message('note_on', channel=0, note=67, velocity=100, time=0),
    Message('note_on', channel=0, note=67, velocity=0, time=416),
    MetaMessage('lyrics', text=' ', time=0),
    Message('note_on', channel=0, note=62, velocity=100, time=112),
    Message('note_on', channel=0, note=62, velocity=0, time=736),
    Message('note_on', channel=0, note=71, velocity=100, time=0),
    Message('note_on', channel=0, note=71, velocity=0, time=1064),
    Message('note_on', channel=0, note=71, velocity=100, time=0),
    Message('note_on', channel=0, note=71, velocity=0, time=240),
    Message('note_on', channel=0, note=71, velocity=100, time=0),
    Message('note_on', channel=0, note=71, velocity=0, time=248),
    MetaMessage('lyrics', text=' ', time=0),
    Message('note_on', channel=0, note=71, velocity=100, time=112),
    Message('note_on', channel=0, note=71, velocity=0, time=152),
    Message('note_on', channel=0, note=71, velocity=100, time=0),
    Message('note_on', channel=0, note=71, velocity=0, time=424),
    Message('note_on', channel=0, note=69, velocity=100, time=0),
    Message('note_on', channel=0, note=69, velocity=0, time=280),
    MetaMessage('lyrics', text=' ', time=0),
    Message('note_on', channel=0, note=71, velocity=100, time=104),
    Message('pitchwheel', channel=0, pitch=-128, time=432),
    Message('pitchwheel', channel=0, pitch=-1024, time=16),
    Message('pitchwheel', channel=0, pitch=-2688, time=24),
    Message('pitchwheel', channel=0, pitch=-4608, time=16),
    Message('pitchwheel', channel=0, pitch=-6144, time=16),
    Message('pitchwheel', channel=0, pitch=-7168, time=16),
    Message('pitchwheel', channel=0, pitch=-7680, time=24),
    Message('pitchwheel', channel=0, pitch=-7808, time=16),
    Message('pitchwheel', channel=0, pitch=-7936, time=16),
    Message('pitchwheel', channel=0, pitch=-8064, time=24),
    Message('pitchwheel', channel=0, pitch=-8192, time=32),
    Message('note_on', channel=0, note=71, velocity=0, time=792),
    Message('pitchwheel', channel=0, pitch=-8064, time=400),
    Message('pitchwheel', channel=0, pitch=-7040, time=24),
    Message('pitchwheel', channel=0, pitch=-5376, time=16),
    Message('pitchwheel', channel=0, pitch=-3328, time=24),
    Message('pitchwheel', channel=0, pitch=-1408, time=16),
    Message('pitchwheel', channel=0, pitch=-256, time=16),
    Message('pitchwheel', channel=0, pitch=0, time=16),
    Message('note_on', channel=0, note=60, velocity=100, time=0),
    Message('note_on', channel=0, note=60, velocity=0, time=288),
    Message('note_on', channel=0, note=60, velocity=100, time=0),
    Message('note_on', channel=0, note=60, velocity=0, time=296),
    Message('note_on', channel=0, note=60, velocity=100, time=0),
    Message('note_on', channel=0, note=60, velocity=0, time=248),
    MetaMessage('lyrics', text=' ', time=0),
    Message('note_on', channel=0, note=60, velocity=100, time=112),
    Message('note_on', channel=0, note=60, velocity=0, time=120),
    Message('note_on', channel=0, note=60, velocity=100, time=0),
    Message('note_on', channel=0, note=60, velocity=0, time=440),
    Message('note_on', channel=0, note=62, velocity=100, time=0),
    Message('note_on', channel=0, note=62, velocity=0, time=352),
    Message('note_on', channel=0, note=60, velocity=100, time=0),
    Message('note_on', channel=0, note=60, velocity=0, time=424),
    MetaMessage('lyrics', text=' ', time=0),
    Message('note_on', channel=0, note=57, velocity=100, time=104),
    Message('note_on', channel=0, note=57, velocity=0, time=576),
    Message('note_on', channel=0, note=60, velocity=100, time=0),
    Message('note_on', channel=0, note=60, velocity=0, time=1232),
    Message('note_on', channel=0, note=60, velocity=100, time=0),
    Message('note_on', channel=0, note=60, velocity=0, time=224),
    Message('note_on', channel=0, note=60, velocity=100, time=0),
    Message('note_on', channel=0, note=60, velocity=0, time=256),
    MetaMessage('lyrics', text=' ', time=0),
    Message('note_on', channel=0, note=60, velocity=100, time=112),
    Message('note_on', channel=0, note=60, velocity=0, time=112),
    Message('note_on', channel=0, note=60, velocity=100, time=0),
    Message('note_on', channel=0, note=60, velocity=0, time=424),
    Message('note_on', channel=0, note=62, velocity=100, time=0),
    Message('note_on', channel=0, note=62, velocity=0, time=344),
    Message('note_on', channel=0, note=60, velocity=100, time=0),
    Message('note_on', channel=0, note=60, velocity=0, time=416),
    MetaMessage('lyrics', text=' ', time=0),
    Message('note_on', channel=0, note=57, velocity=100, time=144),
    Message('note_on', channel=0, note=57, velocity=0, time=800),
    Message('note_on', channel=0, note=66, velocity=100, time=0),
    Message('note_on', channel=0, note=66, velocity=0, time=1008),
    Message('note_on', channel=0, note=66, velocity=100, time=0),
    Message('note_on', channel=0, note=66, velocity=0, time=248),
    Message('note_on', channel=0, note=66, velocity=100, time=0),
    Message('note_on', channel=0, note=66, velocity=0, time=224),
    MetaMessage('lyrics', text=' ', time=0),
    Message('note_on', channel=0, note=66, velocity=100, time=120),
    Message('note_on', channel=0, note=66, velocity=0, time=112),
    Message('note_on', channel=0, note=66, velocity=100, time=0),
    Message('note_on', channel=0, note=66, velocity=0, time=488),
    Message('note_on', channel=0, note=67, velocity=100, time=0),
    Message('note_on', channel=0, note=67, velocity=0, time=312),
    Message('note_on', channel=0, note=66, velocity=100, time=0),
    Message('note_on', channel=0, note=66, velocity=0, time=416),
    MetaMessage('lyrics', text=' ', time=0),
    Message('note_on', channel=0, note=62, velocity=100, time=112),
    Message('note_on', channel=0, note=62, velocity=0, time=736),
    Message('note_on', channel=0, note=72, velocity=100, time=0),
    Message('note_on', channel=0, note=72, velocity=0, time=1080),
    Message('note_on', channel=0, note=72, velocity=100, time=0),
    Message('note_on', channel=0, note=72, velocity=0, time=328),
    Message('note_on', channel=0, note=69, velocity=100, time=0),
    Message('note_on', channel=0, note=69, velocity=0, time=152),
    Message('note_on', channel=0, note=69, velocity=100, time=0),
    Message('note_on', channel=0, note=69, velocity=0, time=328),
    MetaMessage('lyrics', text=' ', time=0),
    Message('note_on', channel=0, note=66, velocity=100, time=16),
    Message('note_on', channel=0, note=66, velocity=0, time=376),
    Message('note_on', channel=0, note=64, velocity=100, time=0),
    Message('note_on', channel=0, note=64, velocity=0, time=440),
    MetaMessage('lyrics', text=' ', time=0),
    Message('note_on', channel=0, note=62, velocity=100, time=0),
    Message('note_on', channel=0, note=62, velocity=0, time=528),
    Message('note_on', channel=0, note=59, velocity=100, time=0),
    Message('note_on', channel=0, note=59, velocity=0, time=2408),
    Message('note_on', channel=0, note=67, velocity=100, time=0),
    Message('note_on', channel=0, note=67, velocity=0, time=1000),
    Message('note_on', channel=0, note=66, velocity=100, time=0),
    Message('note_on', channel=0, note=66, velocity=0, time=216),
    Message('note_on', channel=0, note=66, velocity=100, time=0),
    Message('note_on', channel=0, note=66, velocity=0, time=432),
    Message('note_on', channel=0, note=66, velocity=100, time=0),
    Message('note_on', channel=0, note=66, velocity=0, time=288),
    Message('note_on', channel=0, note=64, velocity=100, time=0),
    Message('note_on', channel=0, note=64, velocity=0, time=200),
    MetaMessage('lyrics', text=' ', time=0),
    Message('note_on', channel=0, note=64, velocity=100, time=112),
    Message('note_on', channel=0, note=64, velocity=0, time=88),
    Message('note_on', channel=0, note=64, velocity=100, time=0),
    Message('note_on', channel=0, note=64, velocity=0, time=264),
    Message('note_on', channel=0, note=64, velocity=100, time=0),
    Message('note_on', channel=0, note=64, velocity=0, time=232),
    Message('note_on', channel=0, note=64, velocity=100, time=0),
    Message('note_on', channel=0, note=64, velocity=0, time=408),
    Message('note_on', channel=0, note=62, velocity=100, time=0),
    Message('note_on', channel=0, note=62, velocity=0, time=312),
    Message('note_on', channel=0, note=62, velocity=100, time=0),
    Message('note_on', channel=0, note=62, velocity=0, time=248),
    MetaMessage('lyrics', text=' ', time=0),
    Message('note_on', channel=0, note=62, velocity=100, time=128),
    Message('note_on', channel=0, note=62, velocity=0, time=760),
    Message('note_on', channel=0, note=57, velocity=100, time=0),
    Message('note_on', channel=0, note=57, velocity=0, time=3096),
    Message('note_on', channel=0, note=69, velocity=100, time=0),
    Message('note_on', channel=0, note=69, velocity=0, time=912),
    Message('note_on', channel=0, note=67, velocity=100, time=0),
    Message('note_on', channel=0, note=67, velocity=0, time=200),
    Message('note_on', channel=0, note=67, velocity=100, time=0),
    Message('note_on', channel=0, note=67, velocity=0, time=432),
    Message('note_on', channel=0, note=67, velocity=100, time=0),
    Message('note_on', channel=0, note=67, velocity=0, time=288),
    Message('note_on', channel=0, note=66, velocity=100, time=0),
    Message('note_on', channel=0, note=66, velocity=0, time=200),
    MetaMessage('lyrics', text=' ', time=0),
    Message('note_on', channel=0, note=66, velocity=100, time=112),
    Message('note_on', channel=0, note=66, velocity=0, time=88),
    Message('note_on', channel=0, note=66, velocity=100, time=0),
    Message('note_on', channel=0, note=66, velocity=0, time=264),
    Message('note_on', channel=0, note=66, velocity=100, time=0),
    Message('note_on', channel=0, note=66, velocity=0, time=232),
    Message('note_on', channel=0, note=66, velocity=100, time=0),
    Message('note_on', channel=0, note=66, velocity=0, time=408),
    Message('note_on', channel=0, note=67, velocity=100, time=0),
    Message('note_on', channel=0, note=67, velocity=0, time=312),
    Message('note_on', channel=0, note=67, velocity=100, time=0),
    Message('note_on', channel=0, note=67, velocity=0, time=248),
    MetaMessage('lyrics', text=' ', time=0),
    Message('note_on', channel=0, note=67, velocity=100, time=128),
    Message('note_on', channel=0, note=67, velocity=0, time=760),
    Message('note_on', channel=0, note=59, velocity=100, time=0),
    Message('note_on', channel=0, note=59, velocity=0, time=3000),
    Message('note_on', channel=0, note=71, velocity=100, time=0),
    Message('note_on', channel=0, note=71, velocity=0, time=504),
    Message('note_on', channel=0, note=71, velocity=100, time=0),
    Message('note_on', channel=0, note=71, velocity=0, time=160),
    Message('note_on', channel=0, note=71, velocity=100, time=0),
    Message('note_on', channel=0, note=71, velocity=0, time=352),
    Message('note_on', channel=0, note=69, velocity=100, time=0),
    Message('note_on', channel=0, note=69, velocity=0, time=160),
    Message('note_on', channel=0, note=69, velocity=100, time=0),
    Message('note_on', channel=0, note=69, velocity=0, time=208),
    Message('note_on', channel=0, note=69, velocity=100, time=0),
    Message('note_on', channel=0, note=69, velocity=0, time=240),
    Message('note_on', channel=0, note=69, velocity=100, time=0),
    Message('note_on', channel=0, note=69, velocity=0, time=264),
    Message('note_on', channel=0, note=67, velocity=100, time=0),
    Message('note_on', channel=0, note=67, velocity=0, time=248),
    MetaMessage('lyrics', text=' ', time=0),
    Message('note_on', channel=0, note=67, velocity=100, time=104),
    Message('note_on', channel=0, note=67, velocity=0, time=344),
    Message('note_on', channel=0, note=57, velocity=100, time=0),
    Message('note_on', channel=0, note=69, velocity=100, time=0),
    Message('note_on', channel=0, note=57, velocity=0, time=1296),
    Message('note_on', channel=0, note=69, velocity=0, time=384),
    Message('note_on', channel=0, note=69, velocity=100, time=0),
    Message('note_on', channel=0, note=69, velocity=0, time=256),
    Message('note_on', channel=0, note=69, velocity=100, time=0),
    Message('note_on', channel=0, note=69, velocity=0, time=312),
    Message('note_on', channel=0, note=67, velocity=100, time=0),
    Message('note_on', channel=0, note=67, velocity=0, time=184),
    Message('note_on', channel=0, note=67, velocity=100, time=0),
    Message('note_on', channel=0, note=67, velocity=0, time=224),
    Message('note_on', channel=0, note=67, velocity=100, time=0),
    Message('note_on', channel=0, note=67, velocity=0, time=232),
    Message('note_on', channel=0, note=67, velocity=100, time=0),
    Message('note_on', channel=0, note=67, velocity=0, time=216),
    Message('note_on', channel=0, note=66, velocity=100, time=0),
    Message('note_on', channel=0, note=66, velocity=0, time=328),
    MetaMessage('lyrics', text=' ', time=0),
    Message('note_on', channel=0, note=66, velocity=100, time=64),
    Message('note_on', channel=0, note=66, velocity=0, time=296),
    Message('note_on', channel=0, note=57, velocity=100, time=0),
    Message('note_on', channel=0, note=57, velocity=0, time=1272),
    Message('note_on', channel=0, note=69, velocity=100, time=0),
    Message('note_on', channel=0, note=69, velocity=0, time=456),
    Message('note_on', channel=0, note=69, velocity=100, time=0),
    Message('note_on', channel=0, note=69, velocity=0, time=240),
    Message('note_on', channel=0, note=69, velocity=100, time=0),
    Message('note_on', channel=0, note=69, velocity=0, time=352),
    Message('note_on', channel=0, note=67, velocity=100, time=0),
    Message('note_on', channel=0, note=67, velocity=0, time=432),
    Message('note_on', channel=0, note=66, velocity=100, time=0),
    Message('note_on', channel=0, note=66, velocity=0, time=536),
    Message('note_on', channel=0, note=63, velocity=100, time=0),
    Message('note_on', channel=0, note=63, velocity=0, time=240),
    Message('note_on', channel=0, note=60, velocity=100, time=0),
    Message('note_on', channel=0, note=60, velocity=0, time=480),
    MetaMessage('lyrics', text=' ', time=0),
    Message('note_on', channel=0, note=59, velocity=100, time=16),
    Message('note_on', channel=0, note=59, velocity=0, time=1592),
    Message('note_on', channel=0, note=57, velocity=100, time=0),
    Message('note_on', channel=0, note=57, velocity=0, time=3384),
    Message('note_on', channel=0, note=69, velocity=100, time=0),
    Message('note_on', channel=0, note=69, velocity=0, time=472),
    Message('note_on', channel=0, note=69, velocity=100, time=0),
    Message('note_on', channel=0, note=69, velocity=0, time=192),
    Message('note_on', channel=0, note=69, velocity=100, time=0),
    Message('note_on', channel=0, note=69, velocity=0, time=296),
    Message('note_on', channel=0, note=67, velocity=100, time=0),
    Message('note_on', channel=0, note=67, velocity=0, time=528),
    Message('note_on', channel=0, note=66, velocity=100, time=0),
    Message('note_on', channel=0, note=66, velocity=0, time=480),
    Message('note_on', channel=0, note=64, velocity=100, time=0),
    Message('note_on', channel=0, note=64, velocity=0, time=240),
    Message('note_on', channel=0, note=66, velocity=100, time=0),
    Message('note_on', channel=0, note=66, velocity=0, time=480),
    MetaMessage('lyrics', text=' ', time=0),
    Message('note_on', channel=0, note=67, velocity=100, time=0),
    Message('note_on', channel=0, note=67, velocity=0, time=1424),
    Message('note_on', channel=0, note=62, velocity=100, time=0),
    Message('note_on', channel=0, note=62, velocity=0, time=2736),
    Message('note_on', channel=0, note=62, velocity=100, time=0),
    Message('note_on', channel=0, note=62, velocity=0, time=296),
    Message('note_on', channel=0, note=62, velocity=100, time=0),
    Message('note_on', channel=0, note=62, velocity=0, time=248),
    MetaMessage('lyrics', text=' ', time=0),
    Message('note_on', channel=0, note=62, velocity=100, time=112),
    Message('note_on', channel=0, note=62, velocity=0, time=120),
    Message('note_on', channel=0, note=62, velocity=100, time=0),
    Message('note_on', channel=0, note=62, velocity=0, time=440),
    Message('note_on', channel=0, note=64, velocity=100, time=0),
    Message('note_on', channel=0, note=64, velocity=0, time=352),
    Message('note_on', channel=0, note=62, velocity=100, time=0),
    Message('note_on', channel=0, note=62, velocity=0, time=424),
    MetaMessage('lyrics', text=' ', time=0),
    Message('note_on', channel=0, note=59, velocity=100, time=104),
    Message('note_on', channel=0, note=59, velocity=0, time=576),
    Message('note_on', channel=0, note=62, velocity=100, time=0),
    Message('note_on', channel=0, note=62, velocity=0, time=1232),
    Message('note_on', channel=0, note=62, velocity=100, time=0),
    Message('note_on', channel=0, note=62, velocity=0, time=224),
    Message('note_on', channel=0, note=62, velocity=100, time=0),
    Message('note_on', channel=0, note=62, velocity=0, time=256),
    MetaMessage('lyrics', text=' ', time=0),
    Message('note_on', channel=0, note=62, velocity=100, time=112),
    Message('note_on', channel=0, note=62, velocity=0, time=112),
    Message('note_on', channel=0, note=62, velocity=100, time=0),
    Message('note_on', channel=0, note=62, velocity=0, time=424),
    Message('note_on', channel=0, note=64, velocity=100, time=0),
    Message('note_on', channel=0, note=64, velocity=0, time=344),
    Message('note_on', channel=0, note=62, velocity=100, time=0),
    Message('note_on', channel=0, note=62, velocity=0, time=416),
    MetaMessage('lyrics', text=' ', time=0),
    Message('note_on', channel=0, note=59, velocity=100, time=144),
    Message('note_on', channel=0, note=59, velocity=0, time=800),
    Message('note_on', channel=0, note=67, velocity=100, time=0),
    Message('note_on', channel=0, note=67, velocity=0, time=1008),
    Message('note_on', channel=0, note=67, velocity=100, time=0),
    Message('note_on', channel=0, note=67, velocity=0, time=248),
    Message('note_on', channel=0, note=67, velocity=100, time=0),
    Message('note_on', channel=0, note=67, velocity=0, time=224),
    MetaMessage('lyrics', text=' ', time=0),
    Message('note_on', channel=0, note=67, velocity=100, time=120),
    Message('note_on', channel=0, note=67, velocity=0, time=112),
    Message('note_on', channel=0, note=67, velocity=100, time=0),
    Message('note_on', channel=0, note=67, velocity=0, time=488),
    Message('note_on', channel=0, note=69, velocity=100, time=0),
    Message('note_on', channel=0, note=69, velocity=0, time=312),
    Message('note_on', channel=0, note=67, velocity=100, time=0),
    Message('note_on', channel=0, note=67, velocity=0, time=416),
    MetaMessage('lyrics', text=' ', time=0),
    Message('note_on', channel=0, note=62, velocity=100, time=112),
    Message('note_on', channel=0, note=62, velocity=0, time=736),
    Message('note_on', channel=0, note=71, velocity=100, time=0),
    Message('note_on', channel=0, note=71, velocity=0, time=1064),
    Message('note_on', channel=0, note=71, velocity=100, time=0),
    Message('note_on', channel=0, note=71, velocity=0, time=240),
    MetaMessage('lyrics', text=' ', time=0),
    Message('note_on', channel=0, note=71, velocity=100, time=120),
    Message('note_on', channel=0, note=71, velocity=0, time=128),
    Message('note_on', channel=0, note=71, velocity=100, time=0),
    Message('note_on', channel=0, note=71, velocity=0, time=264),
    Message('note_on', channel=0, note=71, velocity=100, time=0),
    Message('note_on', channel=0, note=71, velocity=0, time=424),
    Message('note_on', channel=0, note=69, velocity=100, time=0),
    Message('note_on', channel=0, note=69, velocity=0, time=280),
    MetaMessage('lyrics', text=' ', time=0),
    Message('note_on', channel=0, note=71, velocity=100, time=104),
    Message('pitchwheel', channel=0, pitch=-128, time=640),
    Message('pitchwheel', channel=0, pitch=-1024, time=16),
    Message('pitchwheel', channel=0, pitch=-2432, time=24),
    Message('pitchwheel', channel=0, pitch=-4224, time=16),
    Message('pitchwheel', channel=0, pitch=-5760, time=16),
    Message('pitchwheel', channel=0, pitch=-6784, time=16),
    Message('pitchwheel', channel=0, pitch=-7424, time=24),
    Message('pitchwheel', channel=0, pitch=-7680, time=16),
    Message('pitchwheel', channel=0, pitch=-7936, time=16),
    Message('pitchwheel', channel=0, pitch=-8064, time=24),
    Message('pitchwheel', channel=0, pitch=-8192, time=32),
    Message('note_on', channel=0, note=71, velocity=0, time=584),
    Message('pitchwheel', channel=0, pitch=-7680, time=392),
    Message('pitchwheel', channel=0, pitch=-6528, time=16),
    Message('pitchwheel', channel=0, pitch=-4736, time=24),
    Message('pitchwheel', channel=0, pitch=-2688, time=16),
    Message('pitchwheel', channel=0, pitch=-1024, time=16),
    Message('pitchwheel', channel=0, pitch=-128, time=24),
    Message('pitchwheel', channel=0, pitch=0, time=16),
    Message('note_on', channel=0, note=60, velocity=100, time=0),
    Message('note_on', channel=0, note=60, velocity=0, time=296),
    Message('note_on', channel=0, note=60, velocity=100, time=0),
    Message('note_on', channel=0, note=60, velocity=0, time=296),
    Message('note_on', channel=0, note=60, velocity=100, time=0),
    Message('note_on', channel=0, note=60, velocity=0, time=248),
    Message('note_on', channel=0, note=60, velocity=100, time=0),
    Message('note_on', channel=0, note=60, velocity=0, time=232),
    Message('note_on', channel=0, note=60, velocity=100, time=0),
    Message('note_on', channel=0, note=60, velocity=0, time=440),
    Message('note_on', channel=0, note=62, velocity=100, time=0),
    Message('note_on', channel=0, note=62, velocity=0, time=352),
    Message('note_on', channel=0, note=60, velocity=100, time=0),
    Message('note_on', channel=0, note=60, velocity=0, time=424),
    MetaMessage('lyrics', text=' ', time=0),
    Message('note_on', channel=0, note=57, velocity=100, time=104),
    Message('note_on', channel=0, note=57, velocity=0, time=576),
    Message('note_on', channel=0, note=66, velocity=100, time=0),
    Message('note_on', channel=0, note=66, velocity=0, time=1232),
    Message('note_on', channel=0, note=66, velocity=100, time=0),
    Message('note_on', channel=0, note=66, velocity=0, time=224),
    Message('note_on', channel=0, note=66, velocity=100, time=0),
    Message('note_on', channel=0, note=66, velocity=0, time=256),
    Message('note_on', channel=0, note=66, velocity=100, time=0),
    Message('note_on', channel=0, note=66, velocity=0, time=224),
    Message('note_on', channel=0, note=66, velocity=100, time=0),
    Message('note_on', channel=0, note=66, velocity=0, time=424),
    Message('note_on', channel=0, note=67, velocity=100, time=0),
    Message('note_on', channel=0, note=67, velocity=0, time=344),
    Message('note_on', channel=0, note=66, velocity=100, time=0),
    Message('note_on', channel=0, note=66, velocity=0, time=416),
    MetaMessage('lyrics', text=' ', time=0),
    Message('note_on', channel=0, note=62, velocity=100, time=144),
    Message('note_on', channel=0, note=62, velocity=0, time=800),
    Message('note_on', channel=0, note=69, velocity=100, time=0),
    Message('note_on', channel=0, note=69, velocity=0, time=1008),
    Message('note_on', channel=0, note=69, velocity=100, time=0),
    Message('note_on', channel=0, note=69, velocity=0, time=248),
    Message('note_on', channel=0, note=69, velocity=100, time=0),
    Message('note_on', channel=0, note=69, velocity=0, time=224),
    MetaMessage('lyrics', text=' ', time=0),
    Message('note_on', channel=0, note=69, velocity=100, time=120),
    Message('note_on', channel=0, note=69, velocity=0, time=112),
    Message('note_on', channel=0, note=69, velocity=100, time=0),
    Message('note_on', channel=0, note=69, velocity=0, time=488),
    Message('note_on', channel=0, note=71, velocity=100, time=0),
    Message('note_on', channel=0, note=71, velocity=0, time=312),
    Message('note_on', channel=0, note=69, velocity=100, time=0),
    Message('note_on', channel=0, note=69, velocity=0, time=416),
    MetaMessage('lyrics', text=' ', time=0),
    Message('note_on', channel=0, note=66, velocity=100, time=112),
    Message('note_on', channel=0, note=66, velocity=0, time=736),
    Message('note_on', channel=0, note=72, velocity=100, time=0),
    Message('note_on', channel=0, note=72, velocity=0, time=1168),
    Message('note_on', channel=0, note=69, velocity=100, time=0),
    Message('note_on', channel=0, note=69, velocity=0, time=240),
    Message('note_on', channel=0, note=72, velocity=100, time=0),
    Message('note_on', channel=0, note=72, velocity=0, time=480),
    MetaMessage('lyrics', text=' ', time=0),
    Message('note_on', channel=0, note=66, velocity=100, time=256),
    Message('note_on', channel=0, note=66, velocity=0, time=136),
    Message('note_on', channel=0, note=66, velocity=100, time=0),
    Message('note_on', channel=0, note=66, velocity=0, time=280),
    Message('note_on', channel=0, note=69, velocity=100, time=0),
    Message('note_on', channel=0, note=69, velocity=0, time=288),
    MetaMessage('lyrics', text=' ', time=0),
    Message('note_on', channel=0, note=66, velocity=100, time=0),
    Message('note_on', channel=0, note=66, velocity=0, time=456),
    Message('note_on', channel=0, note=59, velocity=100, time=0),
    Message('note_on', channel=0, note=59, velocity=0, time=2432),
    Message('note_on', channel=0, note=67, velocity=100, time=0),
    Message('note_on', channel=0, note=67, velocity=0, time=944),
    Message('note_on', channel=0, note=66, velocity=100, time=0),
    Message('note_on', channel=0, note=66, velocity=0, time=192),
    Message('note_on', channel=0, note=66, velocity=100, time=0),
    Message('note_on', channel=0, note=66, velocity=0, time=432),
    MetaMessage('lyrics', text=' ', time=0),
    Message('note_on', channel=0, note=66, velocity=100, time=120),
    Message('note_on', channel=0, note=66, velocity=0, time=168),
    Message('note_on', channel=0, note=64, velocity=100, time=0),
    Message('note_on', channel=0, note=64, velocity=0, time=200),
    Message('note_on', channel=0, note=64, velocity=100, time=0),
    Message('note_on', channel=0, note=64, velocity=0, time=200),
    Message('note_on', channel=0, note=64, velocity=100, time=0),
    Message('note_on', channel=0, note=64, velocity=0, time=264),
    Message('note_on', channel=0, note=64, velocity=100, time=0),
    Message('note_on', channel=0, note=64, velocity=0, time=232),
    Message('note_on', channel=0, note=64, velocity=100, time=0),
    Message('note_on', channel=0, note=64, velocity=0, time=408),
    Message('note_on', channel=0, note=62, velocity=100, time=0),
    Message('note_on', channel=0, note=62, velocity=0, time=312),
    Message('note_on', channel=0, note=62, velocity=100, time=0),
    Message('note_on', channel=0, note=62, velocity=0, time=248),
    MetaMessage('lyrics', text=' ', time=0),
    Message('note_on', channel=0, note=62, velocity=100, time=128),
    Message('note_on', channel=0, note=62, velocity=0, time=760),
    Message('note_on', channel=0, note=57, velocity=100, time=0),
    Message('note_on', channel=0, note=57, velocity=0, time=3024),
    Message('note_on', channel=0, note=69, velocity=100, time=0),
    Message('note_on', channel=0, note=69, velocity=0, time=1008),
    Message('note_on', channel=0, note=67, velocity=100, time=0),
    Message('note_on', channel=0, note=67, velocity=0, time=176),
    Message('note_on', channel=0, note=67, velocity=100, time=0),
    Message('note_on', channel=0, note=67, velocity=0, time=432),
    MetaMessage('lyrics', text=' ', time=0),
    Message('note_on', channel=0, note=67, velocity=100, time=120),
    Message('note_on', channel=0, note=67, velocity=0, time=168),
    Message('note_on', channel=0, note=66, velocity=100, time=0),
    Message('note_on', channel=0, note=66, velocity=0, time=200),
    Message('note_on', channel=0, note=66, velocity=100, time=0),
    Message('note_on', channel=0, note=66, velocity=0, time=200),
    Message('note_on', channel=0, note=66, velocity=100, time=0),
    Message('note_on', channel=0, note=66, velocity=0, time=264),
    Message('note_on', channel=0, note=66, velocity=100, time=0),
    Message('note_on', channel=0, note=66, velocity=0, time=232),
    Message('note_on', channel=0, note=66, velocity=100, time=0),
    Message('note_on', channel=0, note=66, velocity=0, time=408),
    Message('note_on', channel=0, note=67, velocity=100, time=0),
    Message('note_on', channel=0, note=67, velocity=0, time=312),
    Message('note_on', channel=0, note=67, velocity=100, time=0),
    Message('note_on', channel=0, note=67, velocity=0, time=248),
    MetaMessage('lyrics', text=' ', time=0),
    Message('note_on', channel=0, note=67, velocity=100, time=128),
    Message('note_on', channel=0, note=67, velocity=0, time=760),
    Message('note_on', channel=0, note=59, velocity=100, time=0),
    Message('note_on', channel=0, note=59, velocity=0, time=3024),
    Message('note_on', channel=0, note=71, velocity=100, time=0),
    Message('note_on', channel=0, note=71, velocity=0, time=488),
    Message('note_on', channel=0, note=71, velocity=100, time=0),
    Message('note_on', channel=0, note=71, velocity=0, time=152),
    Message('note_on', channel=0, note=71, velocity=100, time=0),
    Message('note_on', channel=0, note=71, velocity=0, time=352),
    Message('note_on', channel=0, note=69, velocity=100, time=0),
    Message('note_on', channel=0, note=69, velocity=0, time=160),
    Message('note_on', channel=0, note=69, velocity=100, time=0),
    Message('note_on', channel=0, note=69, velocity=0, time=208),
    Message('note_on', channel=0, note=69, velocity=100, time=0),
    Message('note_on', channel=0, note=69, velocity=0, time=240),
    Message('note_on', channel=0, note=69, velocity=100, time=0),
    Message('note_on', channel=0, note=69, velocity=0, time=264),
    Message('note_on', channel=0, note=67, velocity=100, time=0),
    Message('note_on', channel=0, note=67, velocity=0, time=248),
    MetaMessage('lyrics', text=' ', time=0),
    Message('note_on', channel=0, note=67, velocity=100, time=104),
    Message('note_on', channel=0, note=67, velocity=0, time=344),
    Message('note_on', channel=0, note=57, velocity=100, time=0),
    Message('note_on', channel=0, note=57, velocity=0, time=1288),
    Message('note_on', channel=0, note=69, velocity=100, time=0),
    Message('note_on', channel=0, note=69, velocity=0, time=424),
    Message('note_on', channel=0, note=69, velocity=100, time=0),
    Message('note_on', channel=0, note=69, velocity=0, time=224),
    Message('note_on', channel=0, note=69, velocity=100, time=0),
    Message('note_on', channel=0, note=69, velocity=0, time=312),
    Message('note_on', channel=0, note=67, velocity=100, time=0),
    Message('note_on', channel=0, note=67, velocity=0, time=184),
    Message('note_on', channel=0, note=67, velocity=100, time=0),
    Message('note_on', channel=0, note=67, velocity=0, time=224),
    Message('note_on', channel=0, note=67, velocity=100, time=0),
    Message('note_on', channel=0, note=67, velocity=0, time=232),
    Message('note_on', channel=0, note=67, velocity=100, time=0),
    Message('note_on', channel=0, note=67, velocity=0, time=216),
    Message('note_on', channel=0, note=66, velocity=100, time=0),
    Message('note_on', channel=0, note=66, velocity=0, time=328),
    MetaMessage('lyrics', text=' ', time=0),
    Message('note_on', channel=0, note=66, velocity=100, time=64),
    Message('note_on', channel=0, note=66, velocity=0, time=296),
    Message('note_on', channel=0, note=57, velocity=100, time=0),
    Message('note_on', channel=0, note=57, velocity=0, time=1320),
    Message('note_on', channel=0, note=69, velocity=100, time=0),
    Message('note_on', channel=0, note=69, velocity=0, time=472),
    Message('note_on', channel=0, note=69, velocity=100, time=0),
    Message('note_on', channel=0, note=69, velocity=0, time=176),
    Message('note_on', channel=0, note=69, velocity=100, time=0),
    Message('note_on', channel=0, note=69, velocity=0, time=352),
    Message('note_on', channel=0, note=67, velocity=100, time=0),
    Message('note_on', channel=0, note=67, velocity=0, time=432),
    Message('note_on', channel=0, note=66, velocity=100, time=0),
    Message('note_on', channel=0, note=66, velocity=0, time=536),
    Message('note_on', channel=0, note=63, velocity=100, time=0),
    Message('note_on', channel=0, note=63, velocity=0, time=240),
    Message('note_on', channel=0, note=60, velocity=100, time=0),
    Message('note_on', channel=0, note=60, velocity=0, time=480),
    MetaMessage('lyrics', text=' ', time=0),
    Message('note_on', channel=0, note=59, velocity=100, time=16),
    Message('note_on', channel=0, note=59, velocity=0, time=1592),
    Message('note_on', channel=0, note=57, velocity=100, time=0),
    Message('note_on', channel=0, note=57, velocity=0, time=3408),
    Message('note_on', channel=0, note=69, velocity=100, time=0),
    Message('note_on', channel=0, note=69, velocity=0, time=440),
    Message('note_on', channel=0, note=69, velocity=100, time=0),
    Message('note_on', channel=0, note=69, velocity=0, time=200),
    Message('note_on', channel=0, note=69, velocity=100, time=0),
    Message('note_on', channel=0, note=69, velocity=0, time=296),
    Message('note_on', channel=0, note=67, velocity=100, time=0),
    Message('note_on', channel=0, note=67, velocity=0, time=528),
    Message('note_on', channel=0, note=66, velocity=100, time=0),
    Message('note_on', channel=0, note=66, velocity=0, time=480),
    Message('note_on', channel=0, note=64, velocity=100, time=0),
    Message('note_on', channel=0, note=64, velocity=0, time=240),
    Message('note_on', channel=0, note=66, velocity=100, time=0),
    Message('note_on', channel=0, note=66, velocity=0, time=480),
    MetaMessage('lyrics', text=' ', time=0),
    Message('note_on', channel=0, note=67, velocity=100, time=0),
    Message('note_on', channel=0, note=67, velocity=0, time=1424),
    Message('note_on', channel=0, note=62, velocity=100, time=0),
    Message('note_on', channel=0, note=62, velocity=0, time=2736),
    Message('note_on', channel=0, note=62, velocity=100, time=0),
    Message('note_on', channel=0, note=62, velocity=0, time=296),
    Message('note_on', channel=0, note=62, velocity=100, time=0),
    Message('note_on', channel=0, note=62, velocity=0, time=248),
    Message('note_on', channel=0, note=62, velocity=100, time=0),
    Message('note_on', channel=0, note=62, velocity=0, time=232),
    Message('note_on', channel=0, note=62, velocity=100, time=0),
    Message('note_on', channel=0, note=62, velocity=0, time=440),
    Message('note_on', channel=0, note=64, velocity=100, time=0),
    Message('note_on', channel=0, note=64, velocity=0, time=352),
    Message('note_on', channel=0, note=62, velocity=100, time=0),
    Message('note_on', channel=0, note=62, velocity=0, time=424),
    MetaMessage('lyrics', text=' ', time=0),
    Message('note_on', channel=0, note=59, velocity=100, time=104),
    Message('note_on', channel=0, note=59, velocity=0, time=576),
    Message('note_on', channel=0, note=62, velocity=100, time=0),
    Message('note_on', channel=0, note=62, velocity=0, time=1232),
    Message('note_on', channel=0, note=62, velocity=100, time=0),
    Message('note_on', channel=0, note=62, velocity=0, time=224),
    Message('note_on', channel=0, note=62, velocity=100, time=0),
    Message('note_on', channel=0, note=62, velocity=0, time=256),
    Message('note_on', channel=0, note=62, velocity=100, time=0),
    Message('note_on', channel=0, note=62, velocity=0, time=224),
    Message('note_on', channel=0, note=62, velocity=100, time=0),
    Message('note_on', channel=0, note=62, velocity=0, time=424),
    Message('note_on', channel=0, note=64, velocity=100, time=0),
    Message('note_on', channel=0, note=64, velocity=0, time=344),
    Message('note_on', channel=0, note=62, velocity=100, time=0),
    Message('note_on', channel=0, note=62, velocity=0, time=416),
    MetaMessage('lyrics', text=' ', time=0),
    Message('note_on', channel=0, note=59, velocity=100, time=144),
    Message('note_on', channel=0, note=59, velocity=0, time=800),
    Message('note_on', channel=0, note=67, velocity=100, time=0),
    Message('note_on', channel=0, note=67, velocity=0, time=1008),
    Message('note_on', channel=0, note=67, velocity=100, time=0),
    Message('note_on', channel=0, note=67, velocity=0, time=248),
    Message('note_on', channel=0, note=67, velocity=100, time=0),
    Message('note_on', channel=0, note=67, velocity=0, time=224),
    Message('note_on', channel=0, note=67, velocity=100, time=0),
    Message('note_on', channel=0, note=67, velocity=0, time=232),
    Message('note_on', channel=0, note=67, velocity=100, time=0),
    Message('note_on', channel=0, note=67, velocity=0, time=488),
    Message('note_on', channel=0, note=69, velocity=100, time=0),
    Message('note_on', channel=0, note=69, velocity=0, time=312),
    Message('note_on', channel=0, note=67, velocity=100, time=0),
    Message('note_on', channel=0, note=67, velocity=0, time=416),
    MetaMessage('lyrics', text=' ', time=0),
    Message('note_on', channel=0, note=62, velocity=100, time=112),
    Message('note_on', channel=0, note=62, velocity=0, time=736),
    Message('note_on', channel=0, note=71, velocity=100, time=0),
    Message('note_on', channel=0, note=71, velocity=0, time=1064),
    Message('note_on', channel=0, note=71, velocity=100, time=0),
    Message('note_on', channel=0, note=71, velocity=0, time=240),
    Message('note_on', channel=0, note=71, velocity=100, time=0),
    Message('note_on', channel=0, note=71, velocity=0, time=248),
    Message('note_on', channel=0, note=71, velocity=100, time=0),
    Message('note_on', channel=0, note=71, velocity=0, time=264),
    Message('note_on', channel=0, note=71, velocity=100, time=0),
    Message('note_on', channel=0, note=71, velocity=0, time=424),
    Message('note_on', channel=0, note=69, velocity=100, time=0),
    Message('note_on', channel=0, note=69, velocity=0, time=280),
    MetaMessage('lyrics', text=' ', time=0),
    Message('note_on', channel=0, note=71, velocity=100, time=104),
    Message('pitchwheel', channel=0, pitch=-256, time=728),
    Message('pitchwheel', channel=0, pitch=-1024, time=24),
    Message('pitchwheel', channel=0, pitch=-1792, time=16),
    Message('pitchwheel', channel=0, pitch=-2816, time=16),
    Message('pitchwheel', channel=0, pitch=-3968, time=24),
    Message('pitchwheel', channel=0, pitch=-5376, time=16),
    Message('pitchwheel', channel=0, pitch=-6400, time=16),
    Message('pitchwheel', channel=0, pitch=-7168, time=16),
    Message('pitchwheel', channel=0, pitch=-7680, time=24),
    Message('pitchwheel', channel=0, pitch=-7808, time=16),
    Message('pitchwheel', channel=0, pitch=-7936, time=16),
    Message('pitchwheel', channel=0, pitch=-8064, time=24),
    Message('pitchwheel', channel=0, pitch=-8192, time=32),
    Message('note_on', channel=0, note=71, velocity=0, time=456),
    Message('pitchwheel', channel=0, pitch=-7808, time=432),
    Message('pitchwheel', channel=0, pitch=-6528, time=16),
    Message('pitchwheel', channel=0, pitch=-4608, time=16),
    Message('pitchwheel', channel=0, pitch=-2432, time=16),
    Message('pitchwheel', channel=0, pitch=-768, time=24),
    Message('pitchwheel', channel=0, pitch=0, time=16),
    Message('note_on', channel=0, note=60, velocity=100, time=0),
    Message('note_on', channel=0, note=60, velocity=0, time=280),
    Message('note_on', channel=0, note=60, velocity=100, time=0),
    Message('note_on', channel=0, note=60, velocity=0, time=296),
    Message('note_on', channel=0, note=60, velocity=100, time=0),
    Message('note_on', channel=0, note=60, velocity=0, time=248),
    Message('note_on', channel=0, note=60, velocity=100, time=0),
    Message('note_on', channel=0, note=60, velocity=0, time=232),
    Message('note_on', channel=0, note=60, velocity=100, time=0),
    Message('note_on', channel=0, note=60, velocity=0, time=440),
    Message('note_on', channel=0, note=62, velocity=100, time=0),
    Message('note_on', channel=0, note=62, velocity=0, time=352),
    Message('note_on', channel=0, note=60, velocity=100, time=0),
    Message('note_on', channel=0, note=60, velocity=0, time=424),
    MetaMessage('lyrics', text=' ', time=0),
    Message('note_on', channel=0, note=57, velocity=100, time=104),
    Message('note_on', channel=0, note=57, velocity=0, time=576),
    Message('note_on', channel=0, note=60, velocity=100, time=0),
    Message('note_on', channel=0, note=60, velocity=0, time=1232),
    Message('note_on', channel=0, note=60, velocity=100, time=0),
    Message('note_on', channel=0, note=60, velocity=0, time=224),
    Message('note_on', channel=0, note=60, velocity=100, time=0),
    Message('note_on', channel=0, note=60, velocity=0, time=256),
    Message('note_on', channel=0, note=60, velocity=100, time=0),
    Message('note_on', channel=0, note=60, velocity=0, time=224),
    Message('note_on', channel=0, note=60, velocity=100, time=0),
    Message('note_on', channel=0, note=60, velocity=0, time=424),
    Message('note_on', channel=0, note=62, velocity=100, time=0),
    Message('note_on', channel=0, note=62, velocity=0, time=344),
    Message('note_on', channel=0, note=60, velocity=100, time=0),
    Message('note_on', channel=0, note=60, velocity=0, time=416),
    MetaMessage('lyrics', text=' ', time=0),
    Message('note_on', channel=0, note=57, velocity=100, time=144),
    Message('note_on', channel=0, note=57, velocity=0, time=800),
    Message('note_on', channel=0, note=66, velocity=100, time=0),
    Message('note_on', channel=0, note=66, velocity=0, time=1008),
    Message('note_on', channel=0, note=66, velocity=100, time=0),
    Message('note_on', channel=0, note=66, velocity=0, time=248),
    Message('note_on', channel=0, note=66, velocity=100, time=0),
    Message('note_on', channel=0, note=66, velocity=0, time=224),
    Message('note_on', channel=0, note=66, velocity=100, time=0),
    Message('note_on', channel=0, note=66, velocity=0, time=232),
    Message('note_on', channel=0, note=66, velocity=100, time=0),
    Message('note_on', channel=0, note=66, velocity=0, time=488),
    Message('note_on', channel=0, note=67, velocity=100, time=0),
    Message('note_on', channel=0, note=67, velocity=0, time=312),
    Message('note_on', channel=0, note=66, velocity=100, time=0),
    Message('note_on', channel=0, note=66, velocity=0, time=416),
    MetaMessage('lyrics', text=' ', time=0),
    Message('note_on', channel=0, note=62, velocity=100, time=112),
    Message('note_on', channel=0, note=62, velocity=0, time=736),
    Message('note_on', channel=0, note=72, velocity=100, time=0),
    Message('note_on', channel=0, note=72, velocity=0, time=1080),
    Message('note_on', channel=0, note=72, velocity=100, time=0),
    Message('note_on', channel=0, note=72, velocity=0, time=328),
    Message('note_on', channel=0, note=69, velocity=100, time=0),
    Message('note_on', channel=0, note=69, velocity=0, time=152),
    Message('note_on', channel=0, note=69, velocity=100, time=0),
    Message('note_on', channel=0, note=69, velocity=0, time=328),
    Message('note_on', channel=0, note=66, velocity=100, time=0),
    Message('note_on', channel=0, note=66, velocity=0, time=392),
    Message('note_on', channel=0, note=64, velocity=100, time=0),
    Message('note_on', channel=0, note=64, velocity=0, time=440),
    MetaMessage('lyrics', text=' ', time=0),
    Message('note_on', channel=0, note=62, velocity=100, time=0),
    Message('note_on', channel=0, note=62, velocity=0, time=528),
    Message('note_on', channel=0, note=59, velocity=100, time=0),
    Message('note_on', channel=0, note=59, velocity=0, time=2456),
    Message('note_on', channel=0, note=67, velocity=100, time=0),
    Message('note_on', channel=0, note=67, velocity=0, time=968),
    Message('note_on', channel=0, note=66, velocity=100, time=0),
    Message('note_on', channel=0, note=66, velocity=0, time=200),
    Message('note_on', channel=0, note=66, velocity=100, time=0),
    Message('note_on', channel=0, note=66, velocity=0, time=432),
    Message('note_on', channel=0, note=66, velocity=100, time=0),
    Message('note_on', channel=0, note=66, velocity=0, time=288),
    Message('note_on', channel=0, note=64, velocity=100, time=0),
    Message('note_on', channel=0, note=64, velocity=0, time=200),
    MetaMessage('lyrics', text=' ', time=0),
    Message('note_on', channel=0, note=64, velocity=100, time=112),
    Message('note_on', channel=0, note=64, velocity=0, time=88),
    Message('note_on', channel=0, note=64, velocity=100, time=0),
    Message('note_on', channel=0, note=64, velocity=0, time=264),
    Message('note_on', channel=0, note=64, velocity=100, time=0),
    Message('note_on', channel=0, note=64, velocity=0, time=232),
    Message('note_on', channel=0, note=64, velocity=100, time=0),
    Message('note_on', channel=0, note=64, velocity=0, time=408),
    Message('note_on', channel=0, note=62, velocity=100, time=0),
    Message('note_on', channel=0, note=62, velocity=0, time=312),
    Message('note_on', channel=0, note=62, velocity=100, time=0),
    Message('note_on', channel=0, note=62, velocity=0, time=248),
    MetaMessage('lyrics', text=' ', time=0),
    Message('note_on', channel=0, note=62, velocity=100, time=128),
    Message('note_on', channel=0, note=62, velocity=0, time=760),
    Message('note_on', channel=0, note=57, velocity=100, time=0),
    Message('note_on', channel=0, note=57, velocity=0, time=3088),
    Message('note_on', channel=0, note=69, velocity=100, time=0),
    Message('note_on', channel=0, note=69, velocity=0, time=928),
    Message('note_on', channel=0, note=67, velocity=100, time=0),
    Message('note_on', channel=0, note=67, velocity=0, time=192),
    Message('note_on', channel=0, note=67, velocity=100, time=0),
    Message('note_on', channel=0, note=67, velocity=0, time=432),
    Message('note_on', channel=0, note=67, velocity=100, time=0),
    Message('note_on', channel=0, note=67, velocity=0, time=288),
    Message('note_on', channel=0, note=66, velocity=100, time=0),
    Message('note_on', channel=0, note=66, velocity=0, time=200),
    MetaMessage('lyrics', text=' ', time=0),
    Message('note_on', channel=0, note=66, velocity=100, time=112),
    Message('note_on', channel=0, note=66, velocity=0, time=88),
    Message('note_on', channel=0, note=66, velocity=100, time=0),
    Message('note_on', channel=0, note=66, velocity=0, time=264),
    Message('note_on', channel=0, note=66, velocity=100, time=0),
    Message('note_on', channel=0, note=66, velocity=0, time=232),
    Message('note_on', channel=0, note=66, velocity=100, time=0),
    Message('note_on', channel=0, note=66, velocity=0, time=408),
    Message('note_on', channel=0, note=67, velocity=100, time=0),
    Message('note_on', channel=0, note=67, velocity=0, time=312),
    Message('note_on', channel=0, note=67, velocity=100, time=0),
    Message('note_on', channel=0, note=67, velocity=0, time=248),
    MetaMessage('lyrics', text=' ', time=0),
    Message('note_on', channel=0, note=67, velocity=100, time=128),
    Message('note_on', channel=0, note=67, velocity=0, time=760),
    Message('note_on', channel=0, note=59, velocity=100, time=0),
    Message('note_on', channel=0, note=59, velocity=0, time=3000),
    Message('note_on', channel=0, note=71, velocity=100, time=0),
    Message('note_on', channel=0, note=71, velocity=0, time=512),
    Message('note_on', channel=0, note=71, velocity=100, time=0),
    Message('note_on', channel=0, note=71, velocity=0, time=152),
    Message('note_on', channel=0, note=71, velocity=100, time=0),
    Message('note_on', channel=0, note=71, velocity=0, time=352),
    Message('note_on', channel=0, note=69, velocity=100, time=0),
    Message('note_on', channel=0, note=69, velocity=0, time=160),
    Message('note_on', channel=0, note=69, velocity=100, time=0),
    Message('note_on', channel=0, note=69, velocity=0, time=208),
    Message('note_on', channel=0, note=69, velocity=100, time=0),
    Message('note_on', channel=0, note=69, velocity=0, time=240),
    Message('note_on', channel=0, note=69, velocity=100, time=0),
    Message('note_on', channel=0, note=69, velocity=0, time=264),
    Message('note_on', channel=0, note=67, velocity=100, time=0),
    Message('note_on', channel=0, note=67, velocity=0, time=248),
    MetaMessage('lyrics', text=' ', time=0),
    Message('note_on', channel=0, note=67, velocity=100, time=104),
    Message('note_on', channel=0, note=67, velocity=0, time=344),
    Message('note_on', channel=0, note=57, velocity=100, time=0),
    Message('note_on', channel=0, note=57, velocity=0, time=1304),
    Message('note_on', channel=0, note=69, velocity=100, time=0),
    Message('note_on', channel=0, note=69, velocity=0, time=384),
    Message('note_on', channel=0, note=69, velocity=100, time=0),
    Message('note_on', channel=0, note=69, velocity=0, time=248),
    Message('note_on', channel=0, note=69, velocity=100, time=0),
    Message('note_on', channel=0, note=69, velocity=0, time=312),
    Message('note_on', channel=0, note=67, velocity=100, time=0),
    Message('note_on', channel=0, note=67, velocity=0, time=184),
    Message('note_on', channel=0, note=67, velocity=100, time=0),
    Message('note_on', channel=0, note=67, velocity=0, time=224),
    Message('note_on', channel=0, note=67, velocity=100, time=0),
    Message('note_on', channel=0, note=67, velocity=0, time=232),
    Message('note_on', channel=0, note=67, velocity=100, time=0),
    Message('note_on', channel=0, note=67, velocity=0, time=216),
    Message('note_on', channel=0, note=66, velocity=100, time=0),
    Message('note_on', channel=0, note=66, velocity=0, time=328),
    MetaMessage('lyrics', text=' ', time=0),
    Message('note_on', channel=0, note=66, velocity=100, time=64),
    Message('note_on', channel=0, note=66, velocity=0, time=296),
    Message('note_on', channel=0, note=57, velocity=100, time=0),
    Message('note_on', channel=0, note=57, velocity=0, time=1232),
    Message('note_on', channel=0, note=69, velocity=100, time=0),
    Message('note_on', channel=0, note=69, velocity=0, time=480),
    Message('note_on', channel=0, note=69, velocity=100, time=0),
    Message('note_on', channel=0, note=69, velocity=0, time=256),
    Message('note_on', channel=0, note=69, velocity=100, time=0),
    Message('note_on', channel=0, note=69, velocity=0, time=352),
    Message('note_on', channel=0, note=67, velocity=100, time=0),
    Message('note_on', channel=0, note=67, velocity=0, time=432),
    Message('note_on', channel=0, note=66, velocity=100, time=0),
    Message('note_on', channel=0, note=66, velocity=0, time=536),
    Message('note_on', channel=0, note=63, velocity=100, time=0),
    Message('note_on', channel=0, note=63, velocity=0, time=240),
    Message('note_on', channel=0, note=60, velocity=100, time=0),
    Message('note_on', channel=0, note=60, velocity=0, time=480),
    MetaMessage('lyrics', text=' ', time=0),
    Message('note_on', channel=0, note=59, velocity=100, time=16),
    Message('note_on', channel=0, note=59, velocity=0, time=1592),
    Message('note_on', channel=0, note=57, velocity=100, time=0),
    Message('note_on', channel=0, note=57, velocity=0, time=3440),
    Message('note_on', channel=0, note=69, velocity=100, time=0),
    Message('note_on', channel=0, note=69, velocity=0, time=392),
    Message('note_on', channel=0, note=69, velocity=100, time=0),
    Message('note_on', channel=0, note=69, velocity=0, time=216),
    Message('note_on', channel=0, note=69, velocity=100, time=0),
    Message('note_on', channel=0, note=69, velocity=0, time=296),
    Message('note_on', channel=0, note=67, velocity=100, time=0),
    Message('note_on', channel=0, note=67, velocity=0, time=528),
    Message('note_on', channel=0, note=66, velocity=100, time=0),
    Message('note_on', channel=0, note=66, velocity=0, time=480),
    Message('note_on', channel=0, note=64, velocity=100, time=0),
    Message('note_on', channel=0, note=64, velocity=0, time=240),
    Message('note_on', channel=0, note=66, velocity=100, time=0),
    Message('note_on', channel=0, note=66, velocity=0, time=480),
    MetaMessage('lyrics', text=' ', time=0),
    Message('note_on', channel=0, note=67, velocity=100, time=16),
    Message('note_on', channel=0, note=67, velocity=0, time=1408),
    MetaMessage('end_of_track', time=0)]),
  MidiTrack([
    MetaMessage('track_name', name='00005902_0128', time=0),
    Message('note_on', channel=0, note=62, velocity=100, time=0),
    MetaMessage('lyrics', text='', time=0),
    Message('note_on', channel=0, note=62, velocity=0, time=7890),
    Message('note_on', channel=0, note=62, velocity=100, time=0),
    MetaMessage('lyrics', text=' ', time=0),
    Message('note_on', channel=0, note=62, velocity=0, time=296),
    Message('note_on', channel=0, note=62, velocity=100, time=0),
    MetaMessage('lyrics', text='', time=0),
    Message('note_on', channel=0, note=62, velocity=0, time=248),
    Message('note_on', channel=0, note=62, velocity=100, time=112),
    MetaMessage('lyrics', text='\n', time=0),
    Message('note_on', channel=0, note=62, velocity=0, time=120),
    Message('note_on', channel=0, note=62, velocity=100, time=0),
    MetaMessage('lyrics', text='', time=0),
    Message('note_on', channel=0, note=62, velocity=0, time=440),
    Message('note_on', channel=0, note=64, velocity=100, time=0),
    MetaMessage('lyrics', text=' ', time=0),
    Message('note_on', channel=0, note=64, velocity=0, time=352),
    Message('note_on', channel=0, note=62, velocity=100, time=0),
    MetaMessage('lyrics', text='', time=0),
    Message('note_on', channel=0, note=62, velocity=0, time=424),
    Message('note_on', channel=0, note=59, velocity=100, time=104),
    MetaMessage('lyrics', text='\n', time=0),
    Message('note_on', channel=0, note=59, velocity=0, time=576),
    Message('note_on', channel=0, note=62, velocity=100, time=0),
    MetaMessage('lyrics', text='', time=0),
    Message('note_on', channel=0, note=62, velocity=0, time=1232),
    Message('note_on', channel=0, note=62, velocity=100, time=0),
    MetaMessage('lyrics', text=' ', time=0),
    Message('note_on', channel=0, note=62, velocity=0, time=224),
    Message('note_on', channel=0, note=62, velocity=100, time=0),
    MetaMessage('lyrics', text='', time=0),
    Message('note_on', channel=0, note=62, velocity=0, time=256),
    Message('note_on', channel=0, note=62, velocity=100, time=0),
    MetaMessage('lyrics', text=' ', time=0),
    Message('note_on', channel=0, note=62, velocity=0, time=224),
    Message('note_on', channel=0, note=62, velocity=100, time=128),
    MetaMessage('lyrics', text='\n', time=0),
    Message('note_on', channel=0, note=62, velocity=0, time=296),
    Message('note_on', channel=0, note=64, velocity=100, time=0),
    MetaMessage('lyrics', text='', time=0),
    Message('note_on', channel=0, note=64, velocity=0, time=344),
    Message('note_on', channel=0, note=62, velocity=100, time=0),
    MetaMessage('lyrics', text='', time=0),
    Message('note_on', channel=0, note=62, velocity=0, time=416),
    Message('note_on', channel=0, note=59, velocity=100, time=144),
    MetaMessage('lyrics', text='\n', time=0),
    Message('note_on', channel=0, note=59, velocity=0, time=800),
    Message('note_on', channel=0, note=67, velocity=100, time=0),
    MetaMessage('lyrics', text='', time=0),
    Message('note_on', channel=0, note=67, velocity=0, time=1008),
    Message('note_on', channel=0, note=67, velocity=100, time=0),
    MetaMessage('lyrics', text=' ', time=0),
    Message('note_on', channel=0, note=67, velocity=0, time=248),
    Message('note_on', channel=0, note=67, velocity=100, time=0),
    MetaMessage('lyrics', text='', time=0),
    Message('note_on', channel=0, note=67, velocity=0, time=224),
    Message('note_on', channel=0, note=67, velocity=100, time=0),
    MetaMessage('lyrics', text=' ', time=0),
    Message('note_on', channel=0, note=67, velocity=0, time=232),
    Message('note_on', channel=0, note=67, velocity=100, time=128),
    MetaMessage('lyrics', text='\n', time=0),
    Message('note_on', channel=0, note=67, velocity=0, time=360),
    Message('note_on', channel=0, note=69, velocity=100, time=0),
    MetaMessage('lyrics', text='', time=0),
    Message('note_on', channel=0, note=69, velocity=0, time=312),
    Message('note_on', channel=0, note=67, velocity=100, time=0),
    MetaMessage('lyrics', text='', time=0),
    Message('note_on', channel=0, note=67, velocity=0, time=416),
    Message('note_on', channel=0, note=62, velocity=100, time=112),
    MetaMessage('lyrics', text='\n', time=0),
    Message('note_on', channel=0, note=62, velocity=0, time=736),
    Message('note_on', channel=0, note=71, velocity=100, time=0),
    MetaMessage('lyrics', text='', time=0),
    Message('note_on', channel=0, note=71, velocity=0, time=1064),
    Message('note_on', channel=0, note=71, velocity=100, time=0),
    MetaMessage('lyrics', text=' ', time=0),
    Message('note_on', channel=0, note=71, velocity=0, time=240),
    Message('note_on', channel=0, note=71, velocity=100, time=0),
    MetaMessage('lyrics', text='', time=0),
    Message('note_on', channel=0, note=71, velocity=0, time=248),
    Message('note_on', channel=0, note=71, velocity=100, time=112),
    MetaMessage('lyrics', text='\n', time=0),
    Message('note_on', channel=0, note=71, velocity=0, time=152),
    Message('note_on', channel=0, note=71, velocity=100, time=0),
    MetaMessage('lyrics', text=' ', time=0),
    Message('note_on', channel=0, note=71, velocity=0, time=424),
    Message('note_on', channel=0, note=69, velocity=100, time=0),
    MetaMessage('lyrics', text='', time=0),
    Message('note_on', channel=0, note=69, velocity=0, time=280),
    Message('note_on', channel=0, note=71, velocity=100, time=104),
    MetaMessage('lyrics', text='\n', time=0),
    Message('pitchwheel', channel=0, pitch=-128, time=432),
    Message('pitchwheel', channel=0, pitch=-1024, time=16),
    Message('pitchwheel', channel=0, pitch=-2688, time=24),
    Message('pitchwheel', channel=0, pitch=-4608, time=16),
    Message('pitchwheel', channel=0, pitch=-6144, time=16),
    Message('pitchwheel', channel=0, pitch=-7168, time=16),
    Message('pitchwheel', channel=0, pitch=-7680, time=24),
    Message('pitchwheel', channel=0, pitch=-7808, time=16),
    Message('pitchwheel', channel=0, pitch=-7936, time=16),
    Message('pitchwheel', channel=0, pitch=-8064, time=24),
    Message('pitchwheel', channel=0, pitch=-8192, time=32),
    Message('note_on', channel=0, note=71, velocity=0, time=792),
    Message('pitchwheel', channel=0, pitch=-8064, time=400),
    Message('pitchwheel', channel=0, pitch=-7040, time=24),
    Message('pitchwheel', channel=0, pitch=-5376, time=16),
    Message('pitchwheel', channel=0, pitch=-3328, time=24),
    Message('pitchwheel', channel=0, pitch=-1408, time=16),
    Message('pitchwheel', channel=0, pitch=-256, time=16),
    Message('pitchwheel', channel=0, pitch=0, time=16),
    Message('note_on', channel=0, note=60, velocity=100, time=0),
    MetaMessage('lyrics', text=' ', time=0),
    Message('note_on', channel=0, note=60, velocity=0, time=288),
    Message('note_on', channel=0, note=60, velocity=100, time=0),
    MetaMessage('lyrics', text='', time=0),
    Message('note_on', channel=0, note=60, velocity=0, time=296),
    Message('note_on', channel=0, note=60, velocity=100, time=0),
    MetaMessage('lyrics', text='', time=0),
    Message('note_on', channel=0, note=60, velocity=0, time=248),
    Message('note_on', channel=0, note=60, velocity=100, time=112),
    MetaMessage('lyrics', text='\n', time=0),
    Message('note_on', channel=0, note=60, velocity=0, time=120),
    Message('note_on', channel=0, note=60, velocity=100, time=0),
    MetaMessage('lyrics', text=' ', time=0),
    Message('note_on', channel=0, note=60, velocity=0, time=440),
    Message('note_on', channel=0, note=62, velocity=100, time=0),
    MetaMessage('lyrics', text='', time=0),
    Message('note_on', channel=0, note=62, velocity=0, time=352),
    Message('note_on', channel=0, note=60, velocity=100, time=0),
    MetaMessage('lyrics', text='', time=0),
    Message('note_on', channel=0, note=60, velocity=0, time=424),
    Message('note_on', channel=0, note=57, velocity=100, time=104),
    MetaMessage('lyrics', text='\n', time=0),
    Message('note_on', channel=0, note=57, velocity=0, time=576),
    Message('note_on', channel=0, note=60, velocity=100, time=0),
    MetaMessage('lyrics', text=' ', time=0),
    Message('note_on', channel=0, note=60, velocity=0, time=1232),
    Message('note_on', channel=0, note=60, velocity=100, time=0),
    MetaMessage('lyrics', text='', time=0),
    Message('note_on', channel=0, note=60, velocity=0, time=224),
    Message('note_on', channel=0, note=60, velocity=100, time=0),
    MetaMessage('lyrics', text='', time=0),
    Message('note_on', channel=0, note=60, velocity=0, time=256),
    Message('note_on', channel=0, note=60, velocity=100, time=112),
    MetaMessage('lyrics', text='\n', time=0),
    Message('note_on', channel=0, note=60, velocity=0, time=112),
    Message('note_on', channel=0, note=60, velocity=100, time=0),
    MetaMessage('lyrics', text='', time=0),
    Message('note_on', channel=0, note=60, velocity=0, time=424),
    Message('note_on', channel=0, note=62, velocity=100, time=0),
    MetaMessage('lyrics', text=' ', time=0),
    Message('note_on', channel=0, note=62, velocity=0, time=344),
    Message('note_on', channel=0, note=60, velocity=100, time=0),
    MetaMessage('lyrics', text='', time=0),
    Message('note_on', channel=0, note=60, velocity=0, time=416),
    Message('note_on', channel=0, note=57, velocity=100, time=144),
    MetaMessage('lyrics', text='\n', time=0),
    Message('note_on', channel=0, note=57, velocity=0, time=800),
    Message('note_on', channel=0, note=66, velocity=100, time=0),
    MetaMessage('lyrics', text=' ', time=0),
    Message('note_on', channel=0, note=66, velocity=0, time=1008),
    Message('note_on', channel=0, note=66, velocity=100, time=0),
    MetaMessage('lyrics', text='', time=0),
    Message('note_on', channel=0, note=66, velocity=0, time=248),
    Message('note_on', channel=0, note=66, velocity=100, time=0),
    MetaMessage('lyrics', text='', time=0),
    Message('note_on', channel=0, note=66, velocity=0, time=224),
    Message('note_on', channel=0, note=66, velocity=100, time=120),
    MetaMessage('lyrics', text='\n', time=0),
    Message('note_on', channel=0, note=66, velocity=0, time=112),
    Message('note_on', channel=0, note=66, velocity=100, time=0),
    MetaMessage('lyrics', text='', time=0),
    Message('note_on', channel=0, note=66, velocity=0, time=488),
    Message('note_on', channel=0, note=67, velocity=100, time=0),
    MetaMessage('lyrics', text=' ', time=0),
    Message('note_on', channel=0, note=67, velocity=0, time=312),
    Message('note_on', channel=0, note=66, velocity=100, time=0),
    MetaMessage('lyrics', text='', time=0),
    Message('note_on', channel=0, note=66, velocity=0, time=416),
    Message('note_on', channel=0, note=62, velocity=100, time=112),
    MetaMessage('lyrics', text='\n', time=0),
    Message('note_on', channel=0, note=62, velocity=0, time=736),
    Message('note_on', channel=0, note=72, velocity=100, time=0),
    MetaMessage('lyrics', text='', time=0),
    Message('note_on', channel=0, note=72, velocity=0, time=1080),
    Message('note_on', channel=0, note=72, velocity=100, time=0),
    MetaMessage('lyrics', text=' ', time=0),
    Message('note_on', channel=0, note=72, velocity=0, time=328),
    Message('note_on', channel=0, note=69, velocity=100, time=0),
    MetaMessage('lyrics', text='_', time=0),
    Message('note_on', channel=0, note=69, velocity=0, time=152),
    Message('note_on', channel=0, note=69, velocity=100, time=0),
    MetaMessage('lyrics', text='', time=0),
    Message('note_on', channel=0, note=69, velocity=0, time=328),
    Message('note_on', channel=0, note=66, velocity=100, time=16),
    MetaMessage('lyrics', text='\n', time=0),
    Message('note_on', channel=0, note=66, velocity=0, time=376),
    Message('note_on', channel=0, note=64, velocity=100, time=0),
    MetaMessage('lyrics', text='', time=0),
    Message('note_on', channel=0, note=64, velocity=0, time=440),
    Message('note_on', channel=0, note=62, velocity=100, time=0),
    MetaMessage('lyrics', text='\n', time=0),
    MetaMessage('lyrics', text='\n', time=0),
    Message('note_on', channel=0, note=62, velocity=0, time=528),
    Message('note_on', channel=0, note=59, velocity=100, time=0),
    MetaMessage('lyrics', text='=', time=0),
    Message('note_on', channel=0, note=59, velocity=0, time=2408),
    Message('note_on', channel=0, note=67, velocity=100, time=0),
    MetaMessage('lyrics', text=' ', time=0),
    Message('note_on', channel=0, note=67, velocity=0, time=1000),
    Message('note_on', channel=0, note=66, velocity=100, time=0),
    MetaMessage('lyrics', text='_', time=0),
    Message('note_on', channel=0, note=66, velocity=0, time=216),
    Message('note_on', channel=0, note=66, velocity=100, time=0),
    MetaMessage('lyrics', text='', time=0),
    Message('note_on', channel=0, note=66, velocity=0, time=432),
    Message('note_on', channel=0, note=66, velocity=100, time=0),
    MetaMessage('lyrics', text=' ', time=0),
    Message('note_on', channel=0, note=66, velocity=0, time=288),
    Message('note_on', channel=0, note=64, velocity=100, time=0),
    MetaMessage('lyrics', text='', time=0),
    Message('note_on', channel=0, note=64, velocity=0, time=200),
    Message('note_on', channel=0, note=64, velocity=100, time=112),
    MetaMessage('lyrics', text='\n', time=0),
    Message('note_on', channel=0, note=64, velocity=0, time=88),
    Message('note_on', channel=0, note=64, velocity=100, time=0),
    MetaMessage('lyrics', text=' ', time=0),
    Message('note_on', channel=0, note=64, velocity=0, time=264),
    Message('note_on', channel=0, note=64, velocity=100, time=0),
    MetaMessage('lyrics', text='', time=0),
    Message('note_on', channel=0, note=64, velocity=0, time=232),
    Message('note_on', channel=0, note=64, velocity=100, time=0),
    MetaMessage('lyrics', text=' ', time=0),
    Message('note_on', channel=0, note=64, velocity=0, time=408),
    Message('note_on', channel=0, note=62, velocity=100, time=0),
    MetaMessage('lyrics', text='', time=0),
    Message('note_on', channel=0, note=62, velocity=0, time=312),
    Message('note_on', channel=0, note=62, velocity=100, time=0),
    MetaMessage('lyrics', text='', time=0),
    Message('note_on', channel=0, note=62, velocity=0, time=248),
    Message('note_on', channel=0, note=62, velocity=100, time=128),
    MetaMessage('lyrics', text='\n', time=0),
    Message('note_on', channel=0, note=62, velocity=0, time=760),
    Message('note_on', channel=0, note=57, velocity=100, time=0),
    MetaMessage('lyrics', text='=', time=0),
    Message('note_on', channel=0, note=57, velocity=0, time=3096),
    Message('note_on', channel=0, note=69, velocity=100, time=0),
    MetaMessage('lyrics', text=' ', time=0),
    Message('note_on', channel=0, note=69, velocity=0, time=912),
    Message('note_on', channel=0, note=67, velocity=100, time=0),
    MetaMessage('lyrics', text='_', time=0),
    Message('note_on', channel=0, note=67, velocity=0, time=200),
    Message('note_on', channel=0, note=67, velocity=100, time=0),
    MetaMessage('lyrics', text='', time=0),
    Message('note_on', channel=0, note=67, velocity=0, time=432),
    Message('note_on', channel=0, note=67, velocity=100, time=0),
    MetaMessage('lyrics', text=' ', time=0),
    Message('note_on', channel=0, note=67, velocity=0, time=288),
    Message('note_on', channel=0, note=66, velocity=100, time=0),
    MetaMessage('lyrics', text='', time=0),
    Message('note_on', channel=0, note=66, velocity=0, time=200),
    Message('note_on', channel=0, note=66, velocity=100, time=112),
    MetaMessage('lyrics', text='\n', time=0),
    Message('note_on', channel=0, note=66, velocity=0, time=88),
    Message('note_on', channel=0, note=66, velocity=100, time=0),
    MetaMessage('lyrics', text=' ', time=0),
    Message('note_on', channel=0, note=66, velocity=0, time=264),
    Message('note_on', channel=0, note=66, velocity=100, time=0),
    MetaMessage('lyrics', text='', time=0),
    Message('note_on', channel=0, note=66, velocity=0, time=232),
    Message('note_on', channel=0, note=66, velocity=100, time=0),
    MetaMessage('lyrics', text=' ', time=0),
    Message('note_on', channel=0, note=66, velocity=0, time=408),
    Message('note_on', channel=0, note=67, velocity=100, time=0),
    MetaMessage('lyrics', text='', time=0),
    Message('note_on', channel=0, note=67, velocity=0, time=312),
    Message('note_on', channel=0, note=67, velocity=100, time=0),
    MetaMessage('lyrics', text='', time=0),
    Message('note_on', channel=0, note=67, velocity=0, time=248),
    Message('note_on', channel=0, note=67, velocity=100, time=128),
    MetaMessage('lyrics', text='\n', time=0),
    Message('note_on', channel=0, note=67, velocity=0, time=760),
    Message('note_on', channel=0, note=59, velocity=100, time=0),
    MetaMessage('lyrics', text='=', time=0),
    Message('note_on', channel=0, note=59, velocity=0, time=3000),
    Message('note_on', channel=0, note=71, velocity=100, time=0),
    MetaMessage('lyrics', text=' ', time=0),
    Message('note_on', channel=0, note=71, velocity=0, time=504),
    Message('note_on', channel=0, note=71, velocity=100, time=0),
    MetaMessage('lyrics', text='', time=0),
    Message('note_on', channel=0, note=71, velocity=0, time=160),
    Message('note_on', channel=0, note=71, velocity=100, time=0),
    MetaMessage('lyrics', text='', time=0),
    Message('note_on', channel=0, note=71, velocity=0, time=352),
    Message('note_on', channel=0, note=69, velocity=100, time=0),
    MetaMessage('lyrics', text='', time=0),
    Message('note_on', channel=0, note=69, velocity=0, time=160),
    Message('note_on', channel=0, note=69, velocity=100, time=0),
    MetaMessage('lyrics', text=' ', time=0),
    Message('note_on', channel=0, note=69, velocity=0, time=208),
    Message('note_on', channel=0, note=69, velocity=100, time=0),
    MetaMessage('lyrics', text='', time=0),
    Message('note_on', channel=0, note=69, velocity=0, time=240),
    Message('note_on', channel=0, note=69, velocity=100, time=0),
    MetaMessage('lyrics', text='', time=0),
    Message('note_on', channel=0, note=69, velocity=0, time=264),
    Message('note_on', channel=0, note=67, velocity=100, time=0),
    MetaMessage('lyrics', text='', time=0),
    Message('note_on', channel=0, note=67, velocity=0, time=248),
    Message('note_on', channel=0, note=67, velocity=100, time=104),
    MetaMessage('lyrics', text='\n', time=0),
    Message('note_on', channel=0, note=67, velocity=0, time=344),
    Message('note_on', channel=0, note=57, velocity=100, time=0),
    MetaMessage('lyrics', text='=', time=0),
    Message('note_on', channel=0, note=69, velocity=100, time=0),
    MetaMessage('lyrics', text=' ', time=0),
    Message('note_on', channel=0, note=57, velocity=0, time=1296),
    Message('note_on', channel=0, note=69, velocity=0, time=384),
    Message('note_on', channel=0, note=69, velocity=100, time=0),
    MetaMessage('lyrics', text='', time=0),
    Message('note_on', channel=0, note=69, velocity=0, time=256),
    Message('note_on', channel=0, note=69, velocity=100, time=0),
    MetaMessage('lyrics', text='', time=0),
    Message('note_on', channel=0, note=69, velocity=0, time=312),
    Message('note_on', channel=0, note=67, velocity=100, time=0),
    MetaMessage('lyrics', text='', time=0),
    Message('note_on', channel=0, note=67, velocity=0, time=184),
    Message('note_on', channel=0, note=67, velocity=100, time=0),
    MetaMessage('lyrics', text=' ', time=0),
    Message('note_on', channel=0, note=67, velocity=0, time=224),
    Message('note_on', channel=0, note=67, velocity=100, time=0),
    MetaMessage('lyrics', text='', time=0),
    Message('note_on', channel=0, note=67, velocity=0, time=232),
    Message('note_on', channel=0, note=67, velocity=100, time=0),
    MetaMessage('lyrics', text='', time=0),
    Message('note_on', channel=0, note=67, velocity=0, time=216),
    Message('note_on', channel=0, note=66, velocity=100, time=0),
    MetaMessage('lyrics', text='', time=0),
    Message('note_on', channel=0, note=66, velocity=0, time=328),
    Message('note_on', channel=0, note=66, velocity=100, time=64),
    MetaMessage('lyrics', text='\n', time=0),
    Message('note_on', channel=0, note=66, velocity=0, time=296),
    Message('note_on', channel=0, note=57, velocity=100, time=0),
    MetaMessage('lyrics', text='=', time=0),
    Message('note_on', channel=0, note=57, velocity=0, time=1272),
    Message('note_on', channel=0, note=69, velocity=100, time=0),
    MetaMessage('lyrics', text=' ', time=0),
    Message('note_on', channel=0, note=69, velocity=0, time=456),
    Message('note_on', channel=0, note=69, velocity=100, time=0),
    MetaMessage('lyrics', text=' ', time=0),
    Message('note_on', channel=0, note=69, velocity=0, time=240),
    Message('note_on', channel=0, note=69, velocity=100, time=0),
    MetaMessage('lyrics', text='', time=0),
    Message('note_on', channel=0, note=69, velocity=0, time=352),
    Message('note_on', channel=0, note=67, velocity=100, time=0),
    MetaMessage('lyrics', text='', time=0),
    Message('note_on', channel=0, note=67, velocity=0, time=432),
    Message('note_on', channel=0, note=66, velocity=100, time=0),
    MetaMessage('lyrics', text=' ', time=0),
    Message('note_on', channel=0, note=66, velocity=0, time=536),
    Message('note_on', channel=0, note=63, velocity=100, time=0),
    MetaMessage('lyrics', text='', time=0),
    Message('note_on', channel=0, note=63, velocity=0, time=240),
    Message('note_on', channel=0, note=60, velocity=100, time=0),
    MetaMessage('lyrics', text='', time=0),
    Message('note_on', channel=0, note=60, velocity=0, time=480),
    Message('note_on', channel=0, note=59, velocity=100, time=16),
    MetaMessage('lyrics', text='\n', time=0),
    Message('note_on', channel=0, note=59, velocity=0, time=1592),
    Message('note_on', channel=0, note=57, velocity=100, time=0),
    MetaMessage('lyrics', text='=', time=0),
    Message('note_on', channel=0, note=57, velocity=0, time=3384),
    Message('note_on', channel=0, note=69, velocity=100, time=0),
    MetaMessage('lyrics', text=' ', time=0),
    Message('note_on', channel=0, note=69, velocity=0, time=472),
    Message('note_on', channel=0, note=69, velocity=100, time=0),
    MetaMessage('lyrics', text=' ', time=0),
    Message('note_on', channel=0, note=69, velocity=0, time=192),
    Message('note_on', channel=0, note=69, velocity=100, time=0),
    MetaMessage('lyrics', text='', time=0),
    Message('note_on', channel=0, note=69, velocity=0, time=296),
    Message('note_on', channel=0, note=67, velocity=100, time=0),
    MetaMessage('lyrics', text='', time=0),
    Message('note_on', channel=0, note=67, velocity=0, time=528),
    Message('note_on', channel=0, note=66, velocity=100, time=0),
    MetaMessage('lyrics', text=' ', time=0),
    Message('note_on', channel=0, note=66, velocity=0, time=480),
    Message('note_on', channel=0, note=64, velocity=100, time=0),
    MetaMessage('lyrics', text='', time=0),
    Message('note_on', channel=0, note=64, velocity=0, time=240),
    Message('note_on', channel=0, note=66, velocity=100, time=0),
    MetaMessage('lyrics', text='', time=0),
    Message('note_on', channel=0, note=66, velocity=0, time=480),
    Message('note_on', channel=0, note=67, velocity=100, time=0),
    MetaMessage('lyrics', text='\n', time=0),
    MetaMessage('lyrics', text='\n', time=0),
    Message('note_on', channel=0, note=67, velocity=0, time=1424),
    Message('note_on', channel=0, note=62, velocity=100, time=0),
    MetaMessage('lyrics', text=' ', time=0),
    Message('note_on', channel=0, note=62, velocity=0, time=2736),
    Message('note_on', channel=0, note=62, velocity=100, time=0),
    MetaMessage('lyrics', text=' ', time=0),
    Message('note_on', channel=0, note=62, velocity=0, time=296),
    Message('note_on', channel=0, note=62, velocity=100, time=0),
    MetaMessage('lyrics', text='', time=0),
    Message('note_on', channel=0, note=62, velocity=0, time=248),
    Message('note_on', channel=0, note=62, velocity=100, time=112),
    MetaMessage('lyrics', text='\n', time=0),
    Message('note_on', channel=0, note=62, velocity=0, time=120),
    Message('note_on', channel=0, note=62, velocity=100, time=0),
    MetaMessage('lyrics', text='', time=0),
    Message('note_on', channel=0, note=62, velocity=0, time=440),
    Message('note_on', channel=0, note=64, velocity=100, time=0),
    MetaMessage('lyrics', text=' ', time=0),
    Message('note_on', channel=0, note=64, velocity=0, time=352),
    Message('note_on', channel=0, note=62, velocity=100, time=0),
    MetaMessage('lyrics', text='', time=0),
    Message('note_on', channel=0, note=62, velocity=0, time=424),
    Message('note_on', channel=0, note=59, velocity=100, time=104),
    MetaMessage('lyrics', text='\n', time=0),
    Message('note_on', channel=0, note=59, velocity=0, time=576),
    Message('note_on', channel=0, note=62, velocity=100, time=0),
    MetaMessage('lyrics', text=' ', time=0),
    Message('note_on', channel=0, note=62, velocity=0, time=1232),
    Message('note_on', channel=0, note=62, velocity=100, time=0),
    MetaMessage('lyrics', text=' ', time=0),
    Message('note_on', channel=0, note=62, velocity=0, time=224),
    Message('note_on', channel=0, note=62, velocity=100, time=0),
    MetaMessage('lyrics', text='', time=0),
    Message('note_on', channel=0, note=62, velocity=0, time=256),
    Message('note_on', channel=0, note=62, velocity=100, time=112),
    MetaMessage('lyrics', text='\n', time=0),
    Message('note_on', channel=0, note=62, velocity=0, time=112),
    Message('note_on', channel=0, note=62, velocity=100, time=0),
    MetaMessage('lyrics', text=' ', time=0),
    Message('note_on', channel=0, note=62, velocity=0, time=424),
    Message('note_on', channel=0, note=64, velocity=100, time=0),
    MetaMessage('lyrics', text='', time=0),
    Message('note_on', channel=0, note=64, velocity=0, time=344),
    Message('note_on', channel=0, note=62, velocity=100, time=0),
    MetaMessage('lyrics', text='', time=0),
    Message('note_on', channel=0, note=62, velocity=0, time=416),
    Message('note_on', channel=0, note=59, velocity=100, time=144),
    MetaMessage('lyrics', text='\n', time=0),
    Message('note_on', channel=0, note=59, velocity=0, time=800),
    Message('note_on', channel=0, note=67, velocity=100, time=0),
    MetaMessage('lyrics', text=' ', time=0),
    Message('note_on', channel=0, note=67, velocity=0, time=1008),
    Message('note_on', channel=0, note=67, velocity=100, time=0),
    MetaMessage('lyrics', text=' ', time=0),
    Message('note_on', channel=0, note=67, velocity=0, time=248),
    Message('note_on', channel=0, note=67, velocity=100, time=0),
    MetaMessage('lyrics', text='', time=0),
    Message('note_on', channel=0, note=67, velocity=0, time=224),
    Message('note_on', channel=0, note=67, velocity=100, time=120),
    MetaMessage('lyrics', text='\n', time=0),
    Message('note_on', channel=0, note=67, velocity=0, time=112),
    Message('note_on', channel=0, note=67, velocity=100, time=0),
    MetaMessage('lyrics', text=' ', time=0),
    Message('note_on', channel=0, note=67, velocity=0, time=488),
    Message('note_on', channel=0, note=69, velocity=100, time=0),
    MetaMessage('lyrics', text='', time=0),
    Message('note_on', channel=0, note=69, velocity=0, time=312),
    Message('note_on', channel=0, note=67, velocity=100, time=0),
    MetaMessage('lyrics', text='', time=0),
    Message('note_on', channel=0, note=67, velocity=0, time=416),
    Message('note_on', channel=0, note=62, velocity=100, time=112),
    MetaMessage('lyrics', text='\n', time=0),
    Message('note_on', channel=0, note=62, velocity=0, time=736),
    Message('note_on', channel=0, note=71, velocity=100, time=0),
    MetaMessage('lyrics', text='', time=0),
    Message('note_on', channel=0, note=71, velocity=0, time=1064),
    Message('note_on', channel=0, note=71, velocity=100, time=0),
    MetaMessage('lyrics', text=' ', time=0),
    Message('note_on', channel=0, note=71, velocity=0, time=240),
    Message('note_on', channel=0, note=71, velocity=100, time=120),
    MetaMessage('lyrics', text='\n', time=0),
    Message('note_on', channel=0, note=71, velocity=0, time=128),
    Message('note_on', channel=0, note=71, velocity=100, time=0),
    MetaMessage('lyrics', text='', time=0),
    Message('note_on', channel=0, note=71, velocity=0, time=264),
    Message('note_on', channel=0, note=71, velocity=100, time=0),
    MetaMessage('lyrics', text='', time=0),
    Message('note_on', channel=0, note=71, velocity=0, time=424),
    Message('note_on', channel=0, note=69, velocity=100, time=0),
    MetaMessage('lyrics', text='=', time=0),
    Message('note_on', channel=0, note=69, velocity=0, time=280),
    Message('note_on', channel=0, note=71, velocity=100, time=104),
    MetaMessage('lyrics', text='\n', time=0),
    Message('pitchwheel', channel=0, pitch=-128, time=640),
    Message('pitchwheel', channel=0, pitch=-1024, time=16),
    Message('pitchwheel', channel=0, pitch=-2432, time=24),
    Message('pitchwheel', channel=0, pitch=-4224, time=16),
    Message('pitchwheel', channel=0, pitch=-5760, time=16),
    Message('pitchwheel', channel=0, pitch=-6784, time=16),
    Message('pitchwheel', channel=0, pitch=-7424, time=24),
    Message('pitchwheel', channel=0, pitch=-7680, time=16),
    Message('pitchwheel', channel=0, pitch=-7936, time=16),
    Message('pitchwheel', channel=0, pitch=-8064, time=24),
    Message('pitchwheel', channel=0, pitch=-8192, time=32),
    Message('note_on', channel=0, note=71, velocity=0, time=584),
    Message('pitchwheel', channel=0, pitch=-7680, time=392),
    Message('pitchwheel', channel=0, pitch=-6528, time=16),
    Message('pitchwheel', channel=0, pitch=-4736, time=24),
    Message('pitchwheel', channel=0, pitch=-2688, time=16),
    Message('pitchwheel', channel=0, pitch=-1024, time=16),
    Message('pitchwheel', channel=0, pitch=-128, time=24),
    Message('pitchwheel', channel=0, pitch=0, time=16),
    Message('note_on', channel=0, note=60, velocity=100, time=0),
    MetaMessage('lyrics', text=' ', time=0),
    Message('note_on', channel=0, note=60, velocity=0, time=296),
    Message('note_on', channel=0, note=60, velocity=100, time=0),
    MetaMessage('lyrics', text='', time=0),
    Message('note_on', channel=0, note=60, velocity=0, time=296),
    Message('note_on', channel=0, note=60, velocity=100, time=0),
    MetaMessage('lyrics', text=' ', time=0),
    Message('note_on', channel=0, note=60, velocity=0, time=248),
    Message('note_on', channel=0, note=60, velocity=100, time=0),
    MetaMessage('lyrics', text='', time=0),
    Message('note_on', channel=0, note=60, velocity=0, time=232),
    Message('note_on', channel=0, note=60, velocity=100, time=0),
    MetaMessage('lyrics', text=' ', time=0),
    Message('note_on', channel=0, note=60, velocity=0, time=440),
    Message('note_on', channel=0, note=62, velocity=100, time=0),
    MetaMessage('lyrics', text=' ', time=0),
    Message('note_on', channel=0, note=62, velocity=0, time=352),
    Message('note_on', channel=0, note=60, velocity=100, time=0),
    MetaMessage('lyrics', text='', time=0),
    Message('note_on', channel=0, note=60, velocity=0, time=424),
    Message('note_on', channel=0, note=57, velocity=100, time=104),
    MetaMessage('lyrics', text='\n', time=0),
    Message('note_on', channel=0, note=57, velocity=0, time=576),
    Message('note_on', channel=0, note=66, velocity=100, time=0),
    MetaMessage('lyrics', text='', time=0),
    Message('note_on', channel=0, note=66, velocity=0, time=1232),
    Message('note_on', channel=0, note=66, velocity=100, time=0),
    MetaMessage('lyrics', text=' ', time=0),
    Message('note_on', channel=0, note=66, velocity=0, time=224),
    Message('note_on', channel=0, note=66, velocity=100, time=0),
    MetaMessage('lyrics', text='', time=0),
    Message('note_on', channel=0, note=66, velocity=0, time=256),
    Message('note_on', channel=0, note=66, velocity=100, time=0),
    MetaMessage('lyrics', text=' ', time=0),
    Message('note_on', channel=0, note=66, velocity=0, time=224),
    Message('note_on', channel=0, note=66, velocity=100, time=0),
    MetaMessage('lyrics', text='', time=0),
    Message('note_on', channel=0, note=66, velocity=0, time=424),
    Message('note_on', channel=0, note=67, velocity=100, time=0),
    MetaMessage('lyrics', text=' ', time=0),
    Message('note_on', channel=0, note=67, velocity=0, time=344),
    Message('note_on', channel=0, note=66, velocity=100, time=0),
    MetaMessage('lyrics', text='', time=0),
    Message('note_on', channel=0, note=66, velocity=0, time=416),
    Message('note_on', channel=0, note=62, velocity=100, time=144),
    MetaMessage('lyrics', text='\n', time=0),
    Message('note_on', channel=0, note=62, velocity=0, time=800),
    Message('note_on', channel=0, note=69, velocity=100, time=0),
    MetaMessage('lyrics', text=' ', time=0),
    Message('note_on', channel=0, note=69, velocity=0, time=1008),
    Message('note_on', channel=0, note=69, velocity=100, time=0),
    MetaMessage('lyrics', text='', time=0),
    Message('note_on', channel=0, note=69, velocity=0, time=248),
    Message('note_on', channel=0, note=69, velocity=100, time=0),
    MetaMessage('lyrics', text='', time=0),
    Message('note_on', channel=0, note=69, velocity=0, time=224),
    Message('note_on', channel=0, note=69, velocity=100, time=120),
    MetaMessage('lyrics', text='\n', time=0),
    Message('note_on', channel=0, note=69, velocity=0, time=112),
    Message('note_on', channel=0, note=69, velocity=100, time=0),
    MetaMessage('lyrics', text='', time=0),
    Message('note_on', channel=0, note=69, velocity=0, time=488),
    Message('note_on', channel=0, note=71, velocity=100, time=0),
    MetaMessage('lyrics', text=' ', time=0),
    Message('note_on', channel=0, note=71, velocity=0, time=312),
    Message('note_on', channel=0, note=69, velocity=100, time=0),
    MetaMessage('lyrics', text='', time=0),
    Message('note_on', channel=0, note=69, velocity=0, time=416),
    Message('note_on', channel=0, note=66, velocity=100, time=112),
    MetaMessage('lyrics', text='\n', time=0),
    Message('note_on', channel=0, note=66, velocity=0, time=736),
    Message('note_on', channel=0, note=72, velocity=100, time=0),
    MetaMessage('lyrics', text='', time=0),
    Message('note_on', channel=0, note=72, velocity=0, time=1168),
    Message('note_on', channel=0, note=69, velocity=100, time=0),
    MetaMessage('lyrics', text=' ', time=0),
    Message('note_on', channel=0, note=69, velocity=0, time=240),
    Message('note_on', channel=0, note=72, velocity=100, time=0),
    MetaMessage('lyrics', text='"', time=0),
    Message('note_on', channel=0, note=72, velocity=0, time=480),
    Message('note_on', channel=0, note=66, velocity=100, time=256),
    MetaMessage('lyrics', text='"\n', time=0),
    Message('note_on', channel=0, note=66, velocity=0, time=136),
    Message('note_on', channel=0, note=66, velocity=100, time=0),
    MetaMessage('lyrics', text='', time=0),
    Message('note_on', channel=0, note=66, velocity=0, time=280),
    Message('note_on', channel=0, note=69, velocity=100, time=0),
    MetaMessage('lyrics', text='', time=0),
    Message('note_on', channel=0, note=69, velocity=0, time=288),
    Message('note_on', channel=0, note=66, velocity=100, time=0),
    MetaMessage('lyrics', text='\n', time=0),
    MetaMessage('lyrics', text='\n', time=0),
    Message('note_on', channel=0, note=66, velocity=0, time=456),
    Message('note_on', channel=0, note=59, velocity=100, time=0),
    MetaMessage('lyrics', text='=', time=0),
    Message('note_on', channel=0, note=59, velocity=0, time=2432),
    Message('note_on', channel=0, note=67, velocity=100, time=0),
    MetaMessage('lyrics', text=' ', time=0),
    Message('note_on', channel=0, note=67, velocity=0, time=944),
    Message('note_on', channel=0, note=66, velocity=100, time=0),
    MetaMessage('lyrics', text='', time=0),
    Message('note_on', channel=0, note=66, velocity=0, time=192),
    Message('note_on', channel=0, note=66, velocity=100, time=0),
    MetaMessage('lyrics', text='', time=0),
    Message('note_on', channel=0, note=66, velocity=0, time=432),
    Message('note_on', channel=0, note=66, velocity=100, time=120),
    MetaMessage('lyrics', text='\n', time=0),
    Message('note_on', channel=0, note=66, velocity=0, time=168),
    Message('note_on', channel=0, note=64, velocity=100, time=0),
    MetaMessage('lyrics', text='', time=0),
    Message('note_on', channel=0, note=64, velocity=0, time=200),
    Message('note_on', channel=0, note=64, velocity=100, time=0),
    MetaMessage('lyrics', text=' ', time=0),
    Message('note_on', channel=0, note=64, velocity=0, time=200),
    Message('note_on', channel=0, note=64, velocity=100, time=0),
    MetaMessage('lyrics', text=' ', time=0),
    Message('note_on', channel=0, note=64, velocity=0, time=264),
    Message('note_on', channel=0, note=64, velocity=100, time=0),
    MetaMessage('lyrics', text='', time=0),
    Message('note_on', channel=0, note=64, velocity=0, time=232),
    Message('note_on', channel=0, note=64, velocity=100, time=0),
    MetaMessage('lyrics', text=' ', time=0),
    Message('note_on', channel=0, note=64, velocity=0, time=408),
    Message('note_on', channel=0, note=62, velocity=100, time=0),
    MetaMessage('lyrics', text='', time=0),
    Message('note_on', channel=0, note=62, velocity=0, time=312),
    Message('note_on', channel=0, note=62, velocity=100, time=0),
    MetaMessage('lyrics', text='', time=0),
    Message('note_on', channel=0, note=62, velocity=0, time=248),
    Message('note_on', channel=0, note=62, velocity=100, time=128),
    MetaMessage('lyrics', text='\n', time=0),
    Message('note_on', channel=0, note=62, velocity=0, time=760),
    Message('note_on', channel=0, note=57, velocity=100, time=0),
    MetaMessage('lyrics', text='=', time=0),
    Message('note_on', channel=0, note=57, velocity=0, time=3024),
    Message('note_on', channel=0, note=69, velocity=100, time=0),
    MetaMessage('lyrics', text=' ', time=0),
    Message('note_on', channel=0, note=69, velocity=0, time=1008),
    Message('note_on', channel=0, note=67, velocity=100, time=0),
    MetaMessage('lyrics', text='', time=0),
    Message('note_on', channel=0, note=67, velocity=0, time=176),
    Message('note_on', channel=0, note=67, velocity=100, time=0),
    MetaMessage('lyrics', text='', time=0),
    Message('note_on', channel=0, note=67, velocity=0, time=432),
    Message('note_on', channel=0, note=67, velocity=100, time=120),
    MetaMessage('lyrics', text='\n', time=0),
    Message('note_on', channel=0, note=67, velocity=0, time=168),
    Message('note_on', channel=0, note=66, velocity=100, time=0),
    MetaMessage('lyrics', text='', time=0),
    Message('note_on', channel=0, note=66, velocity=0, time=200),
    Message('note_on', channel=0, note=66, velocity=100, time=0),
    MetaMessage('lyrics', text=' ', time=0),
    Message('note_on', channel=0, note=66, velocity=0, time=200),
    Message('note_on', channel=0, note=66, velocity=100, time=0),
    MetaMessage('lyrics', text=' ', time=0),
    Message('note_on', channel=0, note=66, velocity=0, time=264),
    Message('note_on', channel=0, note=66, velocity=100, time=0),
    MetaMessage('lyrics', text='', time=0),
    Message('note_on', channel=0, note=66, velocity=0, time=232),
    Message('note_on', channel=0, note=66, velocity=100, time=0),
    MetaMessage('lyrics', text=' ', time=0),
    Message('note_on', channel=0, note=66, velocity=0, time=408),
    Message('note_on', channel=0, note=67, velocity=100, time=0),
    MetaMessage('lyrics', text='', time=0),
    Message('note_on', channel=0, note=67, velocity=0, time=312),
    Message('note_on', channel=0, note=67, velocity=100, time=0),
    MetaMessage('lyrics', text='', time=0),
    Message('note_on', channel=0, note=67, velocity=0, time=248),
    Message('note_on', channel=0, note=67, velocity=100, time=128),
    MetaMessage('lyrics', text='\n', time=0),
    Message('note_on', channel=0, note=67, velocity=0, time=760),
    Message('note_on', channel=0, note=59, velocity=100, time=0),
    MetaMessage('lyrics', text='=', time=0),
    Message('note_on', channel=0, note=59, velocity=0, time=3024),
    Message('note_on', channel=0, note=71, velocity=100, time=0),
    MetaMessage('lyrics', text=' ', time=0),
    Message('note_on', channel=0, note=71, velocity=0, time=488),
    Message('note_on', channel=0, note=71, velocity=100, time=0),
    MetaMessage('lyrics', text='', time=0),
    Message('note_on', channel=0, note=71, velocity=0, time=152),
    Message('note_on', channel=0, note=71, velocity=100, time=0),
    MetaMessage('lyrics', text='', time=0),
    Message('note_on', channel=0, note=71, velocity=0, time=352),
    Message('note_on', channel=0, note=69, velocity=100, time=0),
    MetaMessage('lyrics', text='', time=0),
    Message('note_on', channel=0, note=69, velocity=0, time=160),
    Message('note_on', channel=0, note=69, velocity=100, time=0),
    MetaMessage('lyrics', text=' ', time=0),
    Message('note_on', channel=0, note=69, velocity=0, time=208),
    Message('note_on', channel=0, note=69, velocity=100, time=0),
    MetaMessage('lyrics', text='', time=0),
    Message('note_on', channel=0, note=69, velocity=0, time=240),
    Message('note_on', channel=0, note=69, velocity=100, time=0),
    MetaMessage('lyrics', text='', time=0),
    Message('note_on', channel=0, note=69, velocity=0, time=264),
    Message('note_on', channel=0, note=67, velocity=100, time=0),
    MetaMessage('lyrics', text='', time=0),
    Message('note_on', channel=0, note=67, velocity=0, time=248),
    Message('note_on', channel=0, note=67, velocity=100, time=104),
    MetaMessage('lyrics', text='\n', time=0),
    Message('note_on', channel=0, note=67, velocity=0, time=344),
    Message('note_on', channel=0, note=57, velocity=100, time=0),
    MetaMessage('lyrics', text='=', time=0),
    Message('note_on', channel=0, note=57, velocity=0, time=1288),
    Message('note_on', channel=0, note=69, velocity=100, time=0),
    MetaMessage('lyrics', text=' ', time=0),
    Message('note_on', channel=0, note=69, velocity=0, time=424),
    Message('note_on', channel=0, note=69, velocity=100, time=0),
    MetaMessage('lyrics', text='', time=0),
    Message('note_on', channel=0, note=69, velocity=0, time=224),
    Message('note_on', channel=0, note=69, velocity=100, time=0),
    MetaMessage('lyrics', text='', time=0),
    Message('note_on', channel=0, note=69, velocity=0, time=312),
    Message('note_on', channel=0, note=67, velocity=100, time=0),
    MetaMessage('lyrics', text='', time=0),
    Message('note_on', channel=0, note=67, velocity=0, time=184),
    Message('note_on', channel=0, note=67, velocity=100, time=0),
    MetaMessage('lyrics', text=' ', time=0),
    Message('note_on', channel=0, note=67, velocity=0, time=224),
    Message('note_on', channel=0, note=67, velocity=100, time=0),
    MetaMessage('lyrics', text='', time=0),
    Message('note_on', channel=0, note=67, velocity=0, time=232),
    Message('note_on', channel=0, note=67, velocity=100, time=0),
    MetaMessage('lyrics', text='', time=0),
    Message('note_on', channel=0, note=67, velocity=0, time=216),
    Message('note_on', channel=0, note=66, velocity=100, time=0),
    MetaMessage('lyrics', text='', time=0),
    Message('note_on', channel=0, note=66, velocity=0, time=328),
    Message('note_on', channel=0, note=66, velocity=100, time=64),
    MetaMessage('lyrics', text='\n', time=0),
    Message('note_on', channel=0, note=66, velocity=0, time=296),
    Message('note_on', channel=0, note=57, velocity=100, time=0),
    MetaMessage('lyrics', text='=', time=0),
    Message('note_on', channel=0, note=57, velocity=0, time=1320),
    Message('note_on', channel=0, note=69, velocity=100, time=0),
    MetaMessage('lyrics', text=' ', time=0),
    Message('note_on', channel=0, note=69, velocity=0, time=472),
    Message('note_on', channel=0, note=69, velocity=100, time=0),
    MetaMessage('lyrics', text=' ', time=0),
    Message('note_on', channel=0, note=69, velocity=0, time=176),
    Message('note_on', channel=0, note=69, velocity=100, time=0),
    MetaMessage('lyrics', text='', time=0),
    Message('note_on', channel=0, note=69, velocity=0, time=352),
    Message('note_on', channel=0, note=67, velocity=100, time=0),
    MetaMessage('lyrics', text='', time=0),
    Message('note_on', channel=0, note=67, velocity=0, time=432),
    Message('note_on', channel=0, note=66, velocity=100, time=0),
    MetaMessage('lyrics', text=' ', time=0),
    Message('note_on', channel=0, note=66, velocity=0, time=536),
    Message('note_on', channel=0, note=63, velocity=100, time=0),
    MetaMessage('lyrics', text='', time=0),
    Message('note_on', channel=0, note=63, velocity=0, time=240),
    Message('note_on', channel=0, note=60, velocity=100, time=0),
    MetaMessage('lyrics', text='', time=0),
    Message('note_on', channel=0, note=60, velocity=0, time=480),
    Message('note_on', channel=0, note=59, velocity=100, time=16),
    MetaMessage('lyrics', text='\n', time=0),
    Message('note_on', channel=0, note=59, velocity=0, time=1592),
    Message('note_on', channel=0, note=57, velocity=100, time=0),
    MetaMessage('lyrics', text='=', time=0),
    Message('note_on', channel=0, note=57, velocity=0, time=3408),
    Message('note_on', channel=0, note=69, velocity=100, time=0),
    MetaMessage('lyrics', text=' ', time=0),
    Message('note_on', channel=0, note=69, velocity=0, time=440),
    Message('note_on', channel=0, note=69, velocity=100, time=0),
    MetaMessage('lyrics', text=' ', time=0),
    Message('note_on', channel=0, note=69, velocity=0, time=200),
    Message('note_on', channel=0, note=69, velocity=100, time=0),
    MetaMessage('lyrics', text='', time=0),
    Message('note_on', channel=0, note=69, velocity=0, time=296),
    Message('note_on', channel=0, note=67, velocity=100, time=0),
    MetaMessage('lyrics', text='', time=0),
    Message('note_on', channel=0, note=67, velocity=0, time=528),
    Message('note_on', channel=0, note=66, velocity=100, time=0),
    MetaMessage('lyrics', text=' ', time=0),
    Message('note_on', channel=0, note=66, velocity=0, time=480),
    Message('note_on', channel=0, note=64, velocity=100, time=0),
    MetaMessage('lyrics', text='', time=0),
    Message('note_on', channel=0, note=64, velocity=0, time=240),
    Message('note_on', channel=0, note=66, velocity=100, time=0),
    MetaMessage('lyrics', text='', time=0),
    Message('note_on', channel=0, note=66, velocity=0, time=480),
    Message('note_on', channel=0, note=67, velocity=100, time=0),
    MetaMessage('lyrics', text='\n', time=0),
    MetaMessage('lyrics', text='\n', time=0),
    Message('note_on', channel=0, note=67, velocity=0, time=1424),
    Message('note_on', channel=0, note=62, velocity=100, time=0),
    MetaMessage('lyrics', text=' ', time=0),
    Message('note_on', channel=0, note=62, velocity=0, time=2736),
    Message('note_on', channel=0, note=62, velocity=100, time=0),
    MetaMessage('lyrics', text='', time=0),
    Message('note_on', channel=0, note=62, velocity=0, time=296),
    Message('note_on', channel=0, note=62, velocity=100, time=0),
    MetaMessage('lyrics', text='', time=0),
    Message('note_on', channel=0, note=62, velocity=0, time=248),
    Message('note_on', channel=0, note=62, velocity=100, time=0),
    MetaMessage('lyrics', text=' ', time=0),
    Message('note_on', channel=0, note=62, velocity=0, time=232),
    Message('note_on', channel=0, note=62, velocity=100, time=0),
    MetaMessage('lyrics', text=' ', time=0),
    Message('note_on', channel=0, note=62, velocity=0, time=440),
    Message('note_on', channel=0, note=64, velocity=100, time=0),
    MetaMessage('lyrics', text='', time=0),
    Message('note_on', channel=0, note=64, velocity=0, time=352),
    Message('note_on', channel=0, note=62, velocity=100, time=0),
    MetaMessage('lyrics', text='', time=0),
    Message('note_on', channel=0, note=62, velocity=0, time=424),
    Message('note_on', channel=0, note=59, velocity=100, time=104),
    MetaMessage('lyrics', text='\n', time=0),
    Message('note_on', channel=0, note=59, velocity=0, time=576),
    Message('note_on', channel=0, note=62, velocity=100, time=0),
    MetaMessage('lyrics', text='', time=0),
    Message('note_on', channel=0, note=62, velocity=0, time=1232),
    Message('note_on', channel=0, note=62, velocity=100, time=0),
    MetaMessage('lyrics', text=' ', time=0),
    Message('note_on', channel=0, note=62, velocity=0, time=224),
    Message('note_on', channel=0, note=62, velocity=100, time=0),
    MetaMessage('lyrics', text=' ', time=0),
    Message('note_on', channel=0, note=62, velocity=0, time=256),
    Message('note_on', channel=0, note=62, velocity=100, time=0),
    MetaMessage('lyrics', text='', time=0),
    Message('note_on', channel=0, note=62, velocity=0, time=224),
    Message('note_on', channel=0, note=62, velocity=100, time=0),
    MetaMessage('lyrics', text=' ', time=0),
    Message('note_on', channel=0, note=62, velocity=0, time=424),
    Message('note_on', channel=0, note=64, velocity=100, time=0),
    MetaMessage('lyrics', text='', time=0),
    Message('note_on', channel=0, note=64, velocity=0, time=344),
    Message('note_on', channel=0, note=62, velocity=100, time=0),
    MetaMessage('lyrics', text='', time=0),
    Message('note_on', channel=0, note=62, velocity=0, time=416),
    Message('note_on', channel=0, note=59, velocity=100, time=144),
    MetaMessage('lyrics', text='\n', time=0),
    Message('note_on', channel=0, note=59, velocity=0, time=800),
    Message('note_on', channel=0, note=67, velocity=100, time=0),
    MetaMessage('lyrics', text='', time=0),
    Message('note_on', channel=0, note=67, velocity=0, time=1008),
    Message('note_on', channel=0, note=67, velocity=100, time=0),
    MetaMessage('lyrics', text=' ', time=0),
    Message('note_on', channel=0, note=67, velocity=0, time=248),
    Message('note_on', channel=0, note=67, velocity=100, time=0),
    MetaMessage('lyrics', text=' ', time=0),
    Message('note_on', channel=0, note=67, velocity=0, time=224),
    Message('note_on', channel=0, note=67, velocity=100, time=0),
    MetaMessage('lyrics', text='', time=0),
    Message('note_on', channel=0, note=67, velocity=0, time=232),
    Message('note_on', channel=0, note=67, velocity=100, time=0),
    MetaMessage('lyrics', text=' ', time=0),
    Message('note_on', channel=0, note=67, velocity=0, time=488),
    Message('note_on', channel=0, note=69, velocity=100, time=0),
    MetaMessage('lyrics', text='', time=0),
    Message('note_on', channel=0, note=69, velocity=0, time=312),
    Message('note_on', channel=0, note=67, velocity=100, time=0),
    MetaMessage('lyrics', text='', time=0),
    Message('note_on', channel=0, note=67, velocity=0, time=416),
    Message('note_on', channel=0, note=62, velocity=100, time=112),
    MetaMessage('lyrics', text='\n', time=0),
    Message('note_on', channel=0, note=62, velocity=0, time=736),
    Message('note_on', channel=0, note=71, velocity=100, time=0),
    MetaMessage('lyrics', text='', time=0),
    Message('note_on', channel=0, note=71, velocity=0, time=1064),
    Message('note_on', channel=0, note=71, velocity=100, time=0),
    MetaMessage('lyrics', text=' ', time=0),
    Message('note_on', channel=0, note=71, velocity=0, time=240),
    Message('note_on', channel=0, note=71, velocity=100, time=0),
    MetaMessage('lyrics', text='', time=0),
    Message('note_on', channel=0, note=71, velocity=0, time=248),
    Message('note_on', channel=0, note=71, velocity=100, time=0),
    MetaMessage('lyrics', text=' ', time=0),
    Message('note_on', channel=0, note=71, velocity=0, time=264),
    Message('note_on', channel=0, note=71, velocity=100, time=0),
    MetaMessage('lyrics', text=' ', time=0),
    Message('note_on', channel=0, note=71, velocity=0, time=424),
    Message('note_on', channel=0, note=69, velocity=100, time=0),
    MetaMessage('lyrics', text='', time=0),
    Message('note_on', channel=0, note=69, velocity=0, time=280),
    Message('note_on', channel=0, note=71, velocity=100, time=104),
    MetaMessage('lyrics', text='\n', time=0),
    Message('pitchwheel', channel=0, pitch=-256, time=728),
    Message('pitchwheel', channel=0, pitch=-1024, time=24),
    Message('pitchwheel', channel=0, pitch=-1792, time=16),
    Message('pitchwheel', channel=0, pitch=-2816, time=16),
    Message('pitchwheel', channel=0, pitch=-3968, time=24),
    Message('pitchwheel', channel=0, pitch=-5376, time=16),
    Message('pitchwheel', channel=0, pitch=-6400, time=16),
    Message('pitchwheel', channel=0, pitch=-7168, time=16),
    Message('pitchwheel', channel=0, pitch=-7680, time=24),
    Message('pitchwheel', channel=0, pitch=-7808, time=16),
    Message('pitchwheel', channel=0, pitch=-7936, time=16),
    Message('pitchwheel', channel=0, pitch=-8064, time=24),
    Message('pitchwheel', channel=0, pitch=-8192, time=32),
    Message('note_on', channel=0, note=71, velocity=0, time=456),
    Message('pitchwheel', channel=0, pitch=-7808, time=432),
    Message('pitchwheel', channel=0, pitch=-6528, time=16),
    Message('pitchwheel', channel=0, pitch=-4608, time=16),
    Message('pitchwheel', channel=0, pitch=-2432, time=16),
    Message('pitchwheel', channel=0, pitch=-768, time=24),
    Message('pitchwheel', channel=0, pitch=0, time=16),
    Message('note_on', channel=0, note=60, velocity=100, time=0),
    MetaMessage('lyrics', text=' ', time=0),
    Message('note_on', channel=0, note=60, velocity=0, time=280),
    Message('note_on', channel=0, note=60, velocity=100, time=0),
    MetaMessage('lyrics', text='_', time=0),
    Message('note_on', channel=0, note=60, velocity=0, time=296),
    Message('note_on', channel=0, note=60, velocity=100, time=0),
    MetaMessage('lyrics', text=' ', time=0),
    Message('note_on', channel=0, note=60, velocity=0, time=248),
    Message('note_on', channel=0, note=60, velocity=100, time=0),
    MetaMessage('lyrics', text='', time=0),
    Message('note_on', channel=0, note=60, velocity=0, time=232),
    Message('note_on', channel=0, note=60, velocity=100, time=0),
    MetaMessage('lyrics', text=' ', time=0),
    Message('note_on', channel=0, note=60, velocity=0, time=440),
    Message('note_on', channel=0, note=62, velocity=100, time=0),
    MetaMessage('lyrics', text='', time=0),
    Message('note_on', channel=0, note=62, velocity=0, time=352),
    Message('note_on', channel=0, note=60, velocity=100, time=0),
    MetaMessage('lyrics', text='', time=0),
    Message('note_on', channel=0, note=60, velocity=0, time=424),
    Message('note_on', channel=0, note=57, velocity=100, time=104),
    MetaMessage('lyrics', text='\n', time=0),
    Message('note_on', channel=0, note=57, velocity=0, time=576),
    Message('note_on', channel=0, note=60, velocity=100, time=0),
    MetaMessage('lyrics', text='', time=0),
    Message('note_on', channel=0, note=60, velocity=0, time=1232),
    Message('note_on', channel=0, note=60, velocity=100, time=0),
    MetaMessage('lyrics', text='', time=0),
    Message('note_on', channel=0, note=60, velocity=0, time=224),
    Message('note_on', channel=0, note=60, velocity=100, time=0),
    MetaMessage('lyrics', text='', time=0),
    Message('note_on', channel=0, note=60, velocity=0, time=256),
    Message('note_on', channel=0, note=60, velocity=100, time=0),
    MetaMessage('lyrics', text=' ', time=0),
    Message('note_on', channel=0, note=60, velocity=0, time=224),
    Message('note_on', channel=0, note=60, velocity=100, time=0),
    MetaMessage('lyrics', text='', time=0),
    Message('note_on', channel=0, note=60, velocity=0, time=424),
    Message('note_on', channel=0, note=62, velocity=100, time=0),
    MetaMessage('lyrics', text=' ', time=0),
    Message('note_on', channel=0, note=62, velocity=0, time=344),
    Message('note_on', channel=0, note=60, velocity=100, time=0),
    MetaMessage('lyrics', text='', time=0),
    Message('note_on', channel=0, note=60, velocity=0, time=416),
    Message('note_on', channel=0, note=57, velocity=100, time=144),
    MetaMessage('lyrics', text='\n', time=0),
    Message('note_on', channel=0, note=57, velocity=0, time=800),
    Message('note_on', channel=0, note=66, velocity=100, time=0),
    MetaMessage('lyrics', text='', time=0),
    Message('note_on', channel=0, note=66, velocity=0, time=1008),
    Message('note_on', channel=0, note=66, velocity=100, time=0),
    MetaMessage('lyrics', text='', time=0),
    Message('note_on', channel=0, note=66, velocity=0, time=248),
    Message('note_on', channel=0, note=66, velocity=100, time=0),
    MetaMessage('lyrics', text='', time=0),
    Message('note_on', channel=0, note=66, velocity=0, time=224),
    Message('note_on', channel=0, note=66, velocity=100, time=0),
    MetaMessage('lyrics', text=' ', time=0),
    Message('note_on', channel=0, note=66, velocity=0, time=232),
    Message('note_on', channel=0, note=66, velocity=100, time=0),
    MetaMessage('lyrics', text='', time=0),
    Message('note_on', channel=0, note=66, velocity=0, time=488),
    Message('note_on', channel=0, note=67, velocity=100, time=0),
    MetaMessage('lyrics', text=' ', time=0),
    Message('note_on', channel=0, note=67, velocity=0, time=312),
    Message('note_on', channel=0, note=66, velocity=100, time=0),
    MetaMessage('lyrics', text='', time=0),
    Message('note_on', channel=0, note=66, velocity=0, time=416),
    Message('note_on', channel=0, note=62, velocity=100, time=112),
    MetaMessage('lyrics', text='\n', time=0),
    Message('note_on', channel=0, note=62, velocity=0, time=736),
    Message('note_on', channel=0, note=72, velocity=100, time=0),
    MetaMessage('lyrics', text='', time=0),
    Message('note_on', channel=0, note=72, velocity=0, time=1080),
    Message('note_on', channel=0, note=72, velocity=100, time=0),
    MetaMessage('lyrics', text=' ', time=0),
    Message('note_on', channel=0, note=72, velocity=0, time=328),
    Message('note_on', channel=0, note=69, velocity=100, time=0),
    MetaMessage('lyrics', text='', time=0),
    Message('note_on', channel=0, note=69, velocity=0, time=152),
    Message('note_on', channel=0, note=69, velocity=100, time=0),
    MetaMessage('lyrics', text=' ', time=0),
    Message('note_on', channel=0, note=69, velocity=0, time=328),
    Message('note_on', channel=0, note=66, velocity=100, time=0),
    MetaMessage('lyrics', text='', time=0),
    Message('note_on', channel=0, note=66, velocity=0, time=392),
    Message('note_on', channel=0, note=64, velocity=100, time=0),
    MetaMessage('lyrics', text='', time=0),
    Message('note_on', channel=0, note=64, velocity=0, time=440),
    Message('note_on', channel=0, note=62, velocity=100, time=0),
    MetaMessage('lyrics', text='\n', time=0),
    MetaMessage('lyrics', text='\n', time=0),
    Message('note_on', channel=0, note=62, velocity=0, time=528),
    Message('note_on', channel=0, note=59, velocity=100, time=0),
    MetaMessage('lyrics', text='=', time=0),
    Message('note_on', channel=0, note=59, velocity=0, time=2456),
    Message('note_on', channel=0, note=67, velocity=100, time=0),
    MetaMessage('lyrics', text='=', time=0),
    Message('note_on', channel=0, note=67, velocity=0, time=968),
    Message('note_on', channel=0, note=66, velocity=100, time=0),
    MetaMessage('lyrics', text=' ', time=0),
    Message('note_on', channel=0, note=66, velocity=0, time=200),
    Message('note_on', channel=0, note=66, velocity=100, time=0),
    MetaMessage('lyrics', text='', time=0),
    Message('note_on', channel=0, note=66, velocity=0, time=432),
    Message('note_on', channel=0, note=66, velocity=100, time=0),
    MetaMessage('lyrics', text=' ', time=0),
    Message('note_on', channel=0, note=66, velocity=0, time=288),
    Message('note_on', channel=0, note=64, velocity=100, time=0),
    MetaMessage('lyrics', text='', time=0),
    Message('note_on', channel=0, note=64, velocity=0, time=200),
    Message('note_on', channel=0, note=64, velocity=100, time=112),
    MetaMessage('lyrics', text='\n', time=0),
    Message('note_on', channel=0, note=64, velocity=0, time=88),
    Message('note_on', channel=0, note=64, velocity=100, time=0),
    MetaMessage('lyrics', text=' ', time=0),
    Message('note_on', channel=0, note=64, velocity=0, time=264),
    Message('note_on', channel=0, note=64, velocity=100, time=0),
    MetaMessage('lyrics', text='', time=0),
    Message('note_on', channel=0, note=64, velocity=0, time=232),
    Message('note_on', channel=0, note=64, velocity=100, time=0),
    MetaMessage('lyrics', text=' ', time=0),
    Message('note_on', channel=0, note=64, velocity=0, time=408),
    Message('note_on', channel=0, note=62, velocity=100, time=0),
    MetaMessage('lyrics', text='', time=0),
    Message('note_on', channel=0, note=62, velocity=0, time=312),
    Message('note_on', channel=0, note=62, velocity=100, time=0),
    MetaMessage('lyrics', text='', time=0),
    Message('note_on', channel=0, note=62, velocity=0, time=248),
    Message('note_on', channel=0, note=62, velocity=100, time=128),
    MetaMessage('lyrics', text='\n', time=0),
    Message('note_on', channel=0, note=62, velocity=0, time=760),
    Message('note_on', channel=0, note=57, velocity=100, time=0),
    MetaMessage('lyrics', text='=', time=0),
    Message('note_on', channel=0, note=57, velocity=0, time=3088),
    Message('note_on', channel=0, note=69, velocity=100, time=0),
    MetaMessage('lyrics', text='=', time=0),
    Message('note_on', channel=0, note=69, velocity=0, time=928),
    Message('note_on', channel=0, note=67, velocity=100, time=0),
    MetaMessage('lyrics', text=' ', time=0),
    Message('note_on', channel=0, note=67, velocity=0, time=192),
    Message('note_on', channel=0, note=67, velocity=100, time=0),
    MetaMessage('lyrics', text='', time=0),
    Message('note_on', channel=0, note=67, velocity=0, time=432),
    Message('note_on', channel=0, note=67, velocity=100, time=0),
    MetaMessage('lyrics', text=' ', time=0),
    Message('note_on', channel=0, note=67, velocity=0, time=288),
    Message('note_on', channel=0, note=66, velocity=100, time=0),
    MetaMessage('lyrics', text='', time=0),
    Message('note_on', channel=0, note=66, velocity=0, time=200),
    Message('note_on', channel=0, note=66, velocity=100, time=112),
    MetaMessage('lyrics', text='\n', time=0),
    Message('note_on', channel=0, note=66, velocity=0, time=88),
    Message('note_on', channel=0, note=66, velocity=100, time=0),
    MetaMessage('lyrics', text=' ', time=0),
    Message('note_on', channel=0, note=66, velocity=0, time=264),
    Message('note_on', channel=0, note=66, velocity=100, time=0),
    MetaMessage('lyrics', text='', time=0),
    Message('note_on', channel=0, note=66, velocity=0, time=232),
    Message('note_on', channel=0, note=66, velocity=100, time=0),
    MetaMessage('lyrics', text=' ', time=0),
    Message('note_on', channel=0, note=66, velocity=0, time=408),
    Message('note_on', channel=0, note=67, velocity=100, time=0),
    MetaMessage('lyrics', text='', time=0),
    Message('note_on', channel=0, note=67, velocity=0, time=312),
    Message('note_on', channel=0, note=67, velocity=100, time=0),
    MetaMessage('lyrics', text='', time=0),
    Message('note_on', channel=0, note=67, velocity=0, time=248),
    Message('note_on', channel=0, note=67, velocity=100, time=128),
    MetaMessage('lyrics', text='\n', time=0),
    Message('note_on', channel=0, note=67, velocity=0, time=760),
    Message('note_on', channel=0, note=59, velocity=100, time=0),
    MetaMessage('lyrics', text='=', time=0),
    Message('note_on', channel=0, note=59, velocity=0, time=3000),
    Message('note_on', channel=0, note=71, velocity=100, time=0),
    MetaMessage('lyrics', text=' ', time=0),
    Message('note_on', channel=0, note=71, velocity=0, time=512),
    Message('note_on', channel=0, note=71, velocity=100, time=0),
    MetaMessage('lyrics', text='', time=0),
    Message('note_on', channel=0, note=71, velocity=0, time=152),
    Message('note_on', channel=0, note=71, velocity=100, time=0),
    MetaMessage('lyrics', text='', time=0),
    Message('note_on', channel=0, note=71, velocity=0, time=352),
    Message('note_on', channel=0, note=69, velocity=100, time=0),
    MetaMessage('lyrics', text='', time=0),
    Message('note_on', channel=0, note=69, velocity=0, time=160),
    Message('note_on', channel=0, note=69, velocity=100, time=0),
    MetaMessage('lyrics', text=' ', time=0),
    Message('note_on', channel=0, note=69, velocity=0, time=208),
    Message('note_on', channel=0, note=69, velocity=100, time=0),
    MetaMessage('lyrics', text='', time=0),
    Message('note_on', channel=0, note=69, velocity=0, time=240),
    Message('note_on', channel=0, note=69, velocity=100, time=0),
    MetaMessage('lyrics', text='', time=0),
    Message('note_on', channel=0, note=69, velocity=0, time=264),
    Message('note_on', channel=0, note=67, velocity=100, time=0),
    MetaMessage('lyrics', text='', time=0),
    Message('note_on', channel=0, note=67, velocity=0, time=248),
    Message('note_on', channel=0, note=67, velocity=100, time=104),
    MetaMessage('lyrics', text='\n', time=0),
    Message('note_on', channel=0, note=67, velocity=0, time=344),
    Message('note_on', channel=0, note=57, velocity=100, time=0),
    MetaMessage('lyrics', text='=', time=0),
    Message('note_on', channel=0, note=57, velocity=0, time=1304),
    Message('note_on', channel=0, note=69, velocity=100, time=0),
    MetaMessage('lyrics', text=' ', time=0),
    Message('note_on', channel=0, note=69, velocity=0, time=384),
    Message('note_on', channel=0, note=69, velocity=100, time=0),
    MetaMessage('lyrics', text='', time=0),
    Message('note_on', channel=0, note=69, velocity=0, time=248),
    Message('note_on', channel=0, note=69, velocity=100, time=0),
    MetaMessage('lyrics', text='', time=0),
    Message('note_on', channel=0, note=69, velocity=0, time=312),
    Message('note_on', channel=0, note=67, velocity=100, time=0),
    MetaMessage('lyrics', text='', time=0),
    Message('note_on', channel=0, note=67, velocity=0, time=184),
    Message('note_on', channel=0, note=67, velocity=100, time=0),
    MetaMessage('lyrics', text=' ', time=0),
    Message('note_on', channel=0, note=67, velocity=0, time=224),
    Message('note_on', channel=0, note=67, velocity=100, time=0),
    MetaMessage('lyrics', text='', time=0),
    Message('note_on', channel=0, note=67, velocity=0, time=232),
    Message('note_on', channel=0, note=67, velocity=100, time=0),
    MetaMessage('lyrics', text='', time=0),
    Message('note_on', channel=0, note=67, velocity=0, time=216),
    Message('note_on', channel=0, note=66, velocity=100, time=0),
    MetaMessage('lyrics', text='', time=0),
    Message('note_on', channel=0, note=66, velocity=0, time=328),
    Message('note_on', channel=0, note=66, velocity=100, time=64),
    MetaMessage('lyrics', text='\n', time=0),
    Message('note_on', channel=0, note=66, velocity=0, time=296),
    Message('note_on', channel=0, note=57, velocity=100, time=0),
    MetaMessage('lyrics', text='=', time=0),
    Message('note_on', channel=0, note=57, velocity=0, time=1232),
    Message('note_on', channel=0, note=69, velocity=100, time=0),
    MetaMessage('lyrics', text=' ', time=0),
    Message('note_on', channel=0, note=69, velocity=0, time=480),
    Message('note_on', channel=0, note=69, velocity=100, time=0),
    MetaMessage('lyrics', text=' ', time=0),
    Message('note_on', channel=0, note=69, velocity=0, time=256),
    Message('note_on', channel=0, note=69, velocity=100, time=0),
    MetaMessage('lyrics', text='', time=0),
    Message('note_on', channel=0, note=69, velocity=0, time=352),
    Message('note_on', channel=0, note=67, velocity=100, time=0),
    MetaMessage('lyrics', text='', time=0),
    Message('note_on', channel=0, note=67, velocity=0, time=432),
    Message('note_on', channel=0, note=66, velocity=100, time=0),
    MetaMessage('lyrics', text=' ', time=0),
    Message('note_on', channel=0, note=66, velocity=0, time=536),
    Message('note_on', channel=0, note=63, velocity=100, time=0),
    MetaMessage('lyrics', text='', time=0),
    Message('note_on', channel=0, note=63, velocity=0, time=240),
    Message('note_on', channel=0, note=60, velocity=100, time=0),
    MetaMessage('lyrics', text='', time=0),
    Message('note_on', channel=0, note=60, velocity=0, time=480),
    Message('note_on', channel=0, note=59, velocity=100, time=16),
    MetaMessage('lyrics', text='\n', time=0),
    Message('note_on', channel=0, note=59, velocity=0, time=1592),
    Message('note_on', channel=0, note=57, velocity=100, time=0),
    MetaMessage('lyrics', text='=', time=0),
    Message('note_on', channel=0, note=57, velocity=0, time=3440),
    Message('note_on', channel=0, note=69, velocity=100, time=0),
    MetaMessage('lyrics', text=' ', time=0),
    Message('note_on', channel=0, note=69, velocity=0, time=392),
    Message('note_on', channel=0, note=69, velocity=100, time=0),
    MetaMessage('lyrics', text=' ', time=0),
    Message('note_on', channel=0, note=69, velocity=0, time=216),
    Message('note_on', channel=0, note=69, velocity=100, time=0),
    MetaMessage('lyrics', text='', time=0),
    Message('note_on', channel=0, note=69, velocity=0, time=296),
    Message('note_on', channel=0, note=67, velocity=100, time=0),
    MetaMessage('lyrics', text='', time=0),
    Message('note_on', channel=0, note=67, velocity=0, time=528),
    Message('note_on', channel=0, note=66, velocity=100, time=0),
    MetaMessage('lyrics', text=' ', time=0),
    Message('note_on', channel=0, note=66, velocity=0, time=480),
    Message('note_on', channel=0, note=64, velocity=100, time=0),
    MetaMessage('lyrics', text='', time=0),
    Message('note_on', channel=0, note=64, velocity=0, time=240),
    Message('note_on', channel=0, note=66, velocity=100, time=0),
    MetaMessage('lyrics', text='', time=0),
    Message('note_on', channel=0, note=66, velocity=0, time=480),
    Message('note_on', channel=0, note=67, velocity=100, time=16),
    MetaMessage('lyrics', text='\n', time=0),
    Message('note_on', channel=0, note=67, velocity=0, time=1408),
    MetaMessage('end_of_track', time=0)])
])0),
    MetaMessage('lyrics', text=' ', time=0),
    Message('note_on', channel=0, note=71, velocity=0, time=152),
    Message('note_on', channel=0, note=71, velocity=100, time=0),
    MetaMessage('lyrics', text=' ', time=0),
    Message('note_on', channel=0, note=71, velocity=0, time=336),
    Message('note_on', channel=0, note=69, velocity=100, time=0),
    MetaMessage('lyrics', text='', time=0),
    Message('note_on', channel=0, note=69, velocity=0, time=136),
    Message('note_on', channel=0, note=71, velocity=100, time=0),
    MetaMessage('lyrics', text='\n', time=0),
    Message('pitchwheel', channel=0, pitch=-256, time=728),
    Message('pitchwheel', channel=0, pitch=-1024, time=24),
    Message('pitchwheel', channel=0, pitch=-1792, time=16),
    Message('pitchwheel', channel=0, pitch=-2816, time=16),
    Message('pitchwheel', channel=0, pitch=-3968, time=24),
    Message('pitchwheel', channel=0, pitch=-5376, time=16),
    Message('pitchwheel', channel=0, pitch=-6400, time=16),
    Message('pitchwheel', channel=0, pitch=-7168, time=16),
    Message('pitchwheel', channel=0, pitch=-7680, time=24),
    Message('pitchwheel', channel=0, pitch=-7808, time=16),
    Message('pitchwheel', channel=0, pitch=-7936, time=16),
    Message('pitchwheel', channel=0, pitch=-8064, time=24),
    Message('pitchwheel', channel=0, pitch=-8192, time=32),
    Message('note_on', channel=0, note=71, velocity=0, time=456),
    Message('pitchwheel', channel=0, pitch=-7808, time=432),
    Message('pitchwheel', channel=0, pitch=-6528, time=16),
    Message('pitchwheel', channel=0, pitch=-4608, time=16),
    Message('pitchwheel', channel=0, pitch=-2432, time=16),
    Message('pitchwheel', channel=0, pitch=-768, time=24),
    Message('pitchwheel', channel=0, pitch=0, time=16),
    Message('note_on', channel=0, note=60, velocity=100, time=0),
    MetaMessage('lyrics', text=' ', time=0),
    Message('note_on', channel=0, note=60, velocity=0, time=64),
    Message('note_on', channel=0, note=60, velocity=100, time=0),
    MetaMessage('lyrics', text='_', time=0),
    Message('note_on', channel=0, note=60, velocity=0, time=120),
    Message('note_on', channel=0, note=60, velocity=100, time=0),
    MetaMessage('lyrics', text=' ', time=0),
    Message('note_on', channel=0, note=60, velocity=0, time=128),
    Message('note_on', channel=0, note=60, velocity=100, time=0),
    MetaMessage('lyrics', text='', time=0),
    Message('note_on', channel=0, note=60, velocity=0, time=120),
    Message('note_on', channel=0, note=60, velocity=100, time=0),
    MetaMessage('lyrics', text=' ', time=0),
    Message('note_on', channel=0, note=60, velocity=0, time=320),
    Message('note_on', channel=0, note=62, velocity=100, time=0),
    MetaMessage('lyrics', text='', time=0),
    Message('note_on', channel=0, note=62, velocity=0, time=192),
    Message('note_on', channel=0, note=60, velocity=100, time=0),
    MetaMessage('lyrics', text='', time=0),
    Message('note_on', channel=0, note=60, velocity=0, time=376),
    Message('note_on', channel=0, note=57, velocity=100, time=0),
    MetaMessage('lyrics', text='\n', time=0),
    Message('note_on', channel=0, note=57, velocity=0, time=576),
    Message('note_on', channel=0, note=60, velocity=100, time=0),
    MetaMessage('lyrics', text='', time=0),
    Message('note_on', channel=0, note=60, velocity=0, time=128),
    Message('note_on', channel=0, note=60, velocity=100, time=0),
    MetaMessage('lyrics', text='', time=0),
    Message('note_on', channel=0, note=60, velocity=0, time=112),
    Message('note_on', channel=0, note=60, velocity=100, time=0),
    MetaMessage('lyrics', text='', time=0),
    Message('note_on', channel=0, note=60, velocity=0, time=128),
    Message('note_on', channel=0, note=60, velocity=100, time=0),
    MetaMessage('lyrics', text=' ', time=0),
    Message('note_on', channel=0, note=60, velocity=0, time=112),
    Message('note_on', channel=0, note=60, velocity=100, time=0),
    MetaMessage('lyrics', text='', time=0),
    Message('note_on', channel=0, note=60, velocity=0, time=296),
    Message('note_on', channel=0, note=62, velocity=100, time=0),
    MetaMessage('lyrics', text=' ', time=0),
    Message('note_on', channel=0, note=62, velocity=0, time=160),
    Message('note_on', channel=0, note=60, velocity=100, time=0),
    MetaMessage('lyrics', text='', time=0),
    Message('note_on', channel=0, note=60, velocity=0, time=336),
    Message('note_on', channel=0, note=57, velocity=100, time=0),
    MetaMessage('lyrics', text='\n', time=0),
    Message('note_on', channel=0, note=57, velocity=0, time=800),
    Message('note_on', channel=0, note=66, velocity=100, time=0),
    MetaMessage('lyrics', text='', time=0),
    Message('note_on', channel=0, note=66, velocity=0, time=128),
    Message('note_on', channel=0, note=66, velocity=100, time=0),
    MetaMessage('lyrics', text='', time=0),
    Message('note_on', channel=0, note=66, velocity=0, time=136),
    Message('note_on', channel=0, note=66, velocity=100, time=0),
    MetaMessage('lyrics', text='', time=0),
    Message('note_on', channel=0, note=66, velocity=0, time=120),
    Message('note_on', channel=0, note=66, velocity=100, time=0),
    MetaMessage('lyrics', text=' ', time=0),
    Message('note_on', channel=0, note=66, velocity=0, time=112),
    Message('note_on', channel=0, note=66, velocity=100, time=0),
    MetaMessage('lyrics', text='', time=0),
    Message('note_on', channel=0, note=66, velocity=0, time=360),
    Message('note_on', channel=0, note=67, velocity=100, time=0),
    MetaMessage('lyrics', text=' ', time=0),
    Message('note_on', channel=0, note=67, velocity=0, time=192),
    Message('note_on', channel=0, note=66, velocity=100, time=0),
    MetaMessage('lyrics', text='', time=0),
    Message('note_on', channel=0, note=66, velocity=0, time=368),
    Message('note_on', channel=0, note=62, velocity=100, time=0),
    MetaMessage('lyrics', text='\n', time=0),
    Message('note_on', channel=0, note=62, velocity=0, time=736),
    Message('note_on', channel=0, note=72, velocity=100, time=0),
    MetaMessage('lyrics', text='', time=0),
    Message('note_on', channel=0, note=72, velocity=0, time=136),
    Message('note_on', channel=0, note=72, velocity=100, time=0),
    MetaMessage('lyrics', text=' ', time=0),
    Message('note_on', channel=0, note=72, velocity=0, time=104),
    Message('note_on', channel=0, note=69, velocity=100, time=0),
    MetaMessage('lyrics', text='', time=0),
    Message('note_on', channel=0, note=69, velocity=0, time=136),
    Message('note_on', channel=0, note=69, velocity=100, time=0),
    MetaMessage('lyrics', text=' ', time=0),
    Message('note_on', channel=0, note=69, velocity=0, time=104),
    Message('note_on', channel=0, note=66, velocity=100, time=0),
    MetaMessage('lyrics', text='', time=0),
    Message('note_on', channel=0, note=66, velocity=0, time=376),
    Message('note_on', channel=0, note=64, velocity=100, time=0),
    MetaMessage('lyrics', text='', time=0),
    Message('note_on', channel=0, note=64, velocity=0, time=336),
    Message('note_on', channel=0, note=62, velocity=100, time=0),
    MetaMessage('lyrics', text='\n', time=0),
    MetaMessage('lyrics', text='\n', time=0),
    Message('note_on', channel=0, note=62, velocity=0, time=384),
    Message('note_on', channel=0, note=59, velocity=100, time=0),
    MetaMessage('lyrics', text='=', time=0),
    Message('note_on', channel=0, note=59, velocity=0, time=920),
    Message('note_on', channel=0, note=67, velocity=100, time=0),
    MetaMessage('lyrics', text='=', time=0),
    Message('note_on', channel=0, note=67, velocity=0, time=920),
    Message('note_on', channel=0, note=66, velocity=100, time=0),
    MetaMessage('lyrics', text=' ', time=0),
    Message('note_on', channel=0, note=66, velocity=0, time=168),
    Message('note_on', channel=0, note=66, velocity=100, time=0),
    MetaMessage('lyrics', text='', time=0),
    Message('note_on', channel=0, note=66, velocity=0, time=120),
    Message('note_on', channel=0, note=66, velocity=100, time=0),
    MetaMessage('lyrics', text=' ', time=0),
    Message('note_on', channel=0, note=66, velocity=0, time=168),
    Message('note_on', channel=0, note=64, velocity=100, time=0),
    MetaMessage('lyrics', text='', time=0),
    Message('note_on', channel=0, note=64, velocity=0, time=128),
    Message('note_on', channel=0, note=64, velocity=100, time=0),
    MetaMessage('lyrics', text='\n', time=0),
    Message('note_on', channel=0, note=64, velocity=0, time=88),
    Message('note_on', channel=0, note=64, velocity=100, time=0),
    MetaMessage('lyrics', text=' ', time=0),
    Message('note_on', channel=0, note=64, velocity=0, time=112),
    Message('note_on', channel=0, note=64, velocity=100, time=0),
    MetaMessage('lyrics', text='', time=0),
    Message('note_on', channel=0, note=64, velocity=0, time=104),
    Message('note_on', channel=0, note=64, velocity=100, time=0),
    MetaMessage('lyrics', text=' ', time=0),
    Message('note_on', channel=0, note=64, velocity=0, time=272),
    Message('note_on', channel=0, note=62, velocity=100, time=0),
    MetaMessage('lyrics', text='', time=0),
    Message('note_on', channel=0, note=62, velocity=0, time=104),
    Message('note_on', channel=0, note=62, velocity=100, time=0),
    MetaMessage('lyrics', text='', time=0),
    Message('note_on', channel=0, note=62, velocity=0, time=112),
    Message('note_on', channel=0, note=62, velocity=100, time=0),
    MetaMessage('lyrics', text='\n', time=0),
    Message('note_on', channel=0, note=62, velocity=0, time=760),
    Message('note_on', channel=0, note=57, velocity=100, time=0),
    MetaMessage('lyrics', text='=', time=0),
    Message('note_on', channel=0, note=57, velocity=0, time=968),
    Message('note_on', channel=0, note=69, velocity=100, time=0),
    MetaMessage('lyrics', text='=', time=0),
    Message('note_on', channel=0, note=69, velocity=0, time=920),
    Message('note_on', channel=0, note=67, velocity=100, time=0),
    MetaMessage('lyrics', text=' ', time=0),
    Message('note_on', channel=0, note=67, velocity=0, time=168),
    Message('note_on', channel=0, note=67, velocity=100, time=0),
    MetaMessage('lyrics', text='', time=0),
    Message('note_on', channel=0, note=67, velocity=0, time=120),
    Message('note_on', channel=0, note=67, velocity=100, time=0),
    MetaMessage('lyrics', text=' ', time=0),
    Message('note_on', channel=0, note=67, velocity=0, time=168),
    Message('note_on', channel=0, note=66, velocity=100, time=0),
    MetaMessage('lyrics', text='', time=0),
    Message('note_on', channel=0, note=66, velocity=0, time=128),
    Message('note_on', channel=0, note=66, velocity=100, time=0),
    MetaMessage('lyrics', text='\n', time=0),
    Message('note_on', channel=0, note=66, velocity=0, time=88),
    Message('note_on', channel=0, note=66, velocity=100, time=0),
    MetaMessage('lyrics', text=' ', time=0),
    Message('note_on', channel=0, note=66, velocity=0, time=112),
    Message('note_on', channel=0, note=66, velocity=100, time=0),
    MetaMessage('lyrics', text='', time=0),
    Message('note_on', channel=0, note=66, velocity=0, time=104),
    Message('note_on', channel=0, note=66, velocity=100, time=0),
    MetaMessage('lyrics', text=' ', time=0),
    Message('note_on', channel=0, note=66, velocity=0, time=272),
    Message('note_on', channel=0, note=67, velocity=100, time=0),
    MetaMessage('lyrics', text='', time=0),
    Message('note_on', channel=0, note=67, velocity=0, time=104),
    Message('note_on', channel=0, note=67, velocity=100, time=0),
    MetaMessage('lyrics', text='', time=0),
    Message('note_on', channel=0, note=67, velocity=0, time=112),
    Message('note_on', channel=0, note=67, velocity=100, time=0),
    MetaMessage('lyrics', text='\n', time=0),
    Message('note_on', channel=0, note=67, velocity=0, time=760),
    Message('note_on', channel=0, note=59, velocity=100, time=0),
    MetaMessage('lyrics', text='=', time=0),
    Message('note_on', channel=0, note=59, velocity=0, time=880),
    Message('note_on', channel=0, note=71, velocity=100, time=0),
    MetaMessage('lyrics', text=' ', time=0),
    Message('note_on', channel=0, note=71, velocity=0, time=456),
    Message('note_on', channel=0, note=71, velocity=100, time=0),
    MetaMessage('lyrics', text='', time=0),
    Message('note_on', channel=0, note=71, velocity=0, time=104),
    Message('note_on', channel=0, note=71, velocity=100, time=0),
    MetaMessage('lyrics', text='', time=0),
    Message('note_on', channel=0, note=71, velocity=0, time=216),
    Message('note_on', channel=0, note=69, velocity=100, time=0),
    MetaMessage('lyrics', text='', time=0),
    Message('note_on', channel=0, note=69, velocity=0, time=136),
    Message('note_on', channel=0, note=69, velocity=100, time=0),
    MetaMessage('lyrics', text=' ', time=0),
    Message('note_on', channel=0, note=69, velocity=0, time=104),
    Message('note_on', channel=0, note=69, velocity=100, time=0),
    MetaMessage('lyrics', text='', time=0),
    Message('note_on', channel=0, note=69, velocity=0, time=104),
    Message('note_on', channel=0, note=69, velocity=100, time=0),
    MetaMessage('lyrics', text='', time=0),
    Message('note_on', channel=0, note=69, velocity=0, time=128),
    Message('note_on', channel=0, note=67, velocity=100, time=0),
    MetaMessage('lyrics', text='', time=0),
    Message('note_on', channel=0, note=67, velocity=0, time=136),
    Message('note_on', channel=0, note=67, velocity=100, time=0),
    MetaMessage('lyrics', text='\n', time=0),
    Message('note_on', channel=0, note=67, velocity=0, time=344),
    Message('note_on', channel=0, note=57, velocity=100, time=0),
    MetaMessage('lyrics', text='=', time=0),
    Message('note_on', channel=0, note=57, velocity=0, time=928),
    Message('note_on', channel=0, note=69, velocity=100, time=0),
    MetaMessage('lyrics', text=' ', time=0),
    Message('note_on', channel=0, note=69, velocity=0, time=360),
    Message('note_on', channel=0, note=69, velocity=100, time=0),
    MetaMessage('lyrics', text='', time=0),
    Message('note_on', channel=0, note=69, velocity=0, time=120),
    Message('note_on', channel=0, note=69, velocity=100, time=0),
    MetaMessage('lyrics', text='', time=0),
    Message('note_on', channel=0, note=69, velocity=0, time=192),
    Message('note_on', channel=0, note=67, velocity=100, time=0),
    MetaMessage('lyrics', text='', time=0),
    Message('note_on', channel=0, note=67, velocity=0, time=136),
    Message('note_on', channel=0, note=67, velocity=100, time=0),
    MetaMessage('lyrics', text=' ', time=0),
    Message('note_on', channel=0, note=67, velocity=0, time=120),
    Message('note_on', channel=0, note=67, velocity=100, time=0),
    MetaMessage('lyrics', text='', time=0),
    Message('note_on', channel=0, note=67, velocity=0, time=112),
    Message('note_on', channel=0, note=67, velocity=100, time=0),
    MetaMessage('lyrics', text='', time=0),
    Message('note_on', channel=0, note=67, velocity=0, time=88),
    Message('note_on', channel=0, note=66, velocity=100, time=0),
    MetaMessage('lyrics', text='', time=0),
    Message('note_on', channel=0, note=66, velocity=0, time=176),
    Message('note_on', channel=0, note=66, velocity=100, time=0),
    MetaMessage('lyrics', text='\n', time=0),
    Message('note_on', channel=0, note=66, velocity=0, time=296),
    Message('note_on', channel=0, note=57, velocity=100, time=0),
    MetaMessage('lyrics', text='=', time=0),
    Message('note_on', channel=0, note=57, velocity=0, time=808),
    Message('note_on', channel=0, note=69, velocity=100, time=0),
    MetaMessage('lyrics', text=' ', time=0),
    Message('note_on', channel=0, note=69, velocity=0, time=360),
    Message('note_on', channel=0, note=69, velocity=100, time=0),
    MetaMessage('lyrics', text=' ', time=0),
    Message('note_on', channel=0, note=69, velocity=0, time=104),
    Message('note_on', channel=0, note=69, velocity=100, time=0),
    MetaMessage('lyrics', text='', time=0),
    Message('note_on', channel=0, note=69, velocity=0, time=216),
    Message('note_on', channel=0, note=67, velocity=100, time=0),
    MetaMessage('lyrics', text='', time=0),
    Message('note_on', channel=0, note=67, velocity=0, time=408),
    Message('note_on', channel=0, note=66, velocity=100, time=0),
    MetaMessage('lyrics', text=' ', time=0),
    Message('note_on', channel=0, note=66, velocity=0, time=464),
    Message('note_on', channel=0, note=63, velocity=100, time=0),
    MetaMessage('lyrics', text='', time=0),
    Message('note_on', channel=0, note=63, velocity=0, time=224),
    Message('note_on', channel=0, note=60, velocity=100, time=0),
    MetaMessage('lyrics', text='', time=0),
    Message('note_on', channel=0, note=60, velocity=0, time=464),
    Message('note_on', channel=0, note=59, velocity=100, time=0),
    MetaMessage('lyrics', text='\n', time=0),
    Message('note_on', channel=0, note=59, velocity=0, time=1592),
    Message('note_on', channel=0, note=57, velocity=100, time=0),
    MetaMessage('lyrics', text='=', time=0),
    Message('note_on', channel=0, note=57, velocity=0, time=952),
    Message('note_on', channel=0, note=69, velocity=100, time=0),
    MetaMessage('lyrics', text=' ', time=0),
    Message('note_on', channel=0, note=69, velocity=0, time=336),
    Message('note_on', channel=0, note=69, velocity=100, time=0),
    MetaMessage('lyrics', text=' ', time=0),
    Message('note_on', channel=0, note=69, velocity=0, time=120),
    Message('note_on', channel=0, note=69, velocity=100, time=0),
    MetaMessage('lyrics', text='', time=0),
    Message('note_on', channel=0, note=69, velocity=0, time=176),
    Message('note_on', channel=0, note=67, velocity=100, time=0),
    MetaMessage('lyrics', text='', time=0),
    Message('note_on', channel=0, note=67, velocity=0, time=464),
    Message('note_on', channel=0, note=66, velocity=100, time=0),
    MetaMessage('lyrics', text=' ', time=0),
    Message('note_on', channel=0, note=66, velocity=0, time=464),
    Message('note_on', channel=0, note=64, velocity=100, time=0),
    MetaMessage('lyrics', text='', time=0),
    Message('note_on', channel=0, note=64, velocity=0, time=224),
    Message('note_on', channel=0, note=66, velocity=100, time=0),
    MetaMessage('lyrics', text='', time=0),
    Message('note_on', channel=0, note=66, velocity=0, time=464),
    Message('note_on', channel=0, note=67, velocity=100, time=0),
    MetaMessage('lyrics', text='\n', time=0),
    Message('note_on', channel=0, note=67, velocity=0, time=1408),
    MetaMessage('end_of_track', time=0)])
])